<svg width="151" height="151" viewBox="0 0 151 151" fill="none" xmlns="http://www.w3.org/2000/svg">
<g filter="url(#filter0_d)">
<rect x="40.6318" y="20.5039" width="70" height="70" rx="35" fill="white"/>
</g>
<path d="M77.7201 48.4701C75.6091 48.0577 73.4251 48.2376 71.4101 48.9901C71.3123 49.0289 71.223 49.0865 71.1474 49.1597C71.0719 49.233 71.0115 49.3204 70.9697 49.4169C70.8853 49.612 70.8818 49.8326 70.9601 50.0301C71.0383 50.2277 71.1919 50.3861 71.3869 50.4705C71.5819 50.5549 71.8025 50.5584 72.0001 50.4801C73.7351 49.8241 75.6171 49.6581 77.4401 50.0001C77.547 50.0283 77.6585 50.034 77.7677 50.0168C77.8768 49.9997 77.9813 49.9602 78.0744 49.9007C78.1675 49.8412 78.2473 49.763 78.3087 49.6712C78.3701 49.5793 78.4119 49.4757 78.4313 49.3669C78.4507 49.2582 78.4473 49.1465 78.4214 49.0391C78.3956 48.9317 78.3477 48.8308 78.2809 48.7428C78.2141 48.6548 78.1297 48.5815 78.0332 48.5277C77.9367 48.4739 77.8301 48.4407 77.7201 48.4301V48.4701Z" fill="#B20F93"/>
<path d="M83.38 56.0716C84.1311 56.0716 84.74 55.4627 84.74 54.7116C84.74 53.9605 84.1311 53.3516 83.38 53.3516C82.6289 53.3516 82.02 53.9605 82.02 54.7116C82.02 55.4627 82.6289 56.0716 83.38 56.0716Z" fill="#B20F93"/>
<path d="M93.5101 56.6308C93.4174 56.4937 93.2922 56.3817 93.1456 56.3049C92.999 56.2281 92.8356 56.1889 92.6701 56.1908C91.8622 56.0787 91.1209 55.6815 90.5801 55.0708C89.5394 53.9333 88.6549 52.6621 87.9501 51.2908L90.8301 46.7908C91.0049 46.5301 91.1119 46.2299 91.1416 45.9173C91.1713 45.6048 91.1227 45.2898 91.0001 45.0008C90.8774 44.7379 90.6919 44.5092 90.46 44.3348C90.228 44.1604 89.9568 44.0457 89.6701 44.0008C87.8387 43.754 85.9746 44.0134 84.2801 44.7508C83.309 45.1786 82.3952 45.7262 81.5601 46.3808C79.9245 45.6474 78.1828 45.1782 76.4001 44.9908C69.3101 44.3008 62.8301 48.9008 62.0001 55.0008C61.6767 54.8553 61.387 54.6442 61.1494 54.3808C60.9118 54.1174 60.7316 53.8075 60.6201 53.4708C60.5488 53.2399 60.5245 52.9971 60.5485 52.7567C60.5726 52.5162 60.6445 52.283 60.7601 52.0708C60.8638 51.8927 61.012 51.7445 61.1901 51.6408C61.3116 51.5673 61.4174 51.4705 61.5015 51.3561C61.5856 51.2417 61.6463 51.1118 61.6802 50.9739C61.7141 50.836 61.7205 50.6928 61.699 50.5524C61.6776 50.4121 61.6287 50.2773 61.5551 50.1558C61.4816 50.0344 61.3848 49.9286 61.2704 49.8445C61.156 49.7604 61.0261 49.6997 60.8882 49.6658C60.7503 49.6319 60.6071 49.6255 60.4667 49.6469C60.3264 49.6684 60.1916 49.7173 60.0701 49.7908C59.586 50.088 59.1866 50.5046 58.9101 51.0008C58.6531 51.4665 58.4915 51.9787 58.4349 52.5076C58.3782 53.0364 58.4276 53.5713 58.5801 54.0808C58.7679 54.6983 59.0792 55.2711 59.4952 55.7645C59.9113 56.2579 60.4233 56.6615 61.0001 56.9508L61.9201 57.4108C62.0351 59.8451 62.6548 62.2289 63.7401 64.4108L63.9101 64.7908C64.7775 66.6252 65.8837 68.3367 67.2001 69.8808C67.2938 69.9875 67.4092 70.073 67.5385 70.1316C67.6678 70.1902 67.8081 70.2207 67.9501 70.2208H72.4701C72.6339 70.22 72.795 70.179 72.9392 70.1013C73.0834 70.0237 73.2063 69.9118 73.2972 69.7755C73.388 69.6393 73.444 69.4828 73.4602 69.3198C73.4764 69.1568 73.4524 68.9923 73.3901 68.8408L73.0001 67.9408L74.1801 68.0708C75.5102 68.2023 76.85 68.2023 78.1801 68.0708C78.5501 68.6708 78.9501 69.2708 79.3901 69.8608C79.4822 69.9869 79.6025 70.0896 79.7415 70.1608C79.8804 70.232 80.034 70.2697 80.1901 70.2708H84.5301C84.6952 70.2707 84.8576 70.2297 85.003 70.1515C85.1483 70.0733 85.2721 69.9604 85.3632 69.8228C85.4543 69.6851 85.5099 69.5271 85.5251 69.3627C85.5402 69.1984 85.5145 69.0328 85.4501 68.8808C85.2801 68.4808 85.1101 68.0508 84.9801 67.6808C84.8001 67.1508 84.6601 66.6808 84.5501 66.2308C85.6545 65.6346 86.6681 64.8837 87.5601 64.0008C88.5565 64.1213 89.5637 64.1213 90.5601 64.0008C90.733 63.9747 90.896 63.9037 91.0328 63.7949C91.1697 63.6861 91.2757 63.5433 91.3401 63.3808L93.6001 57.5708C93.6637 57.4189 93.6888 57.2535 93.6731 57.0895C93.6574 56.9255 93.6014 56.768 93.5101 56.6308ZM89.7301 62.0708C88.9451 62.1155 88.1575 62.0787 87.3801 61.9608C86.4948 61.8113 85.6401 61.5174 84.8501 61.0908C84.6161 60.9748 84.3461 60.9549 84.0976 61.0354C83.8492 61.1159 83.6421 61.2904 83.5206 61.5216C83.3992 61.7528 83.373 62.0223 83.4476 62.2726C83.5223 62.5228 83.6918 62.734 83.9201 62.8608C84.3381 63.08 84.7688 63.2736 85.2101 63.4408C84.6648 63.9064 84.0594 64.2966 83.4101 64.6008L82.3501 65.0808C82.3501 65.0808 82.8401 67.2708 83.1701 68.2408H80.7901C80.5501 67.9008 79.3401 65.8808 79.3401 65.8808L78.6701 65.9708C77.2628 66.1738 75.8367 66.214 74.4201 66.0908C73.7601 66.0308 72.6601 65.8908 71.8001 65.7408L70.2501 65.4708C70.2501 65.4708 70.8801 67.9008 71.0001 68.2108H68.4201C67.3662 66.9204 66.473 65.5067 65.7601 64.0008L65.5801 63.6108C64.2808 61.1098 63.7321 58.2865 64.0001 55.4808C64.5401 50.2908 70.1201 46.3708 76.1901 46.9408C77.9559 47.1388 79.6743 47.6394 81.2701 48.4208L81.8901 48.7108L82.3901 48.2408C83.1688 47.545 84.0489 46.9718 85.0001 46.5408C86.2587 45.995 87.6335 45.7716 89.0001 45.8908L85.6201 51.1808L85.8701 51.6808C86.7435 53.44 87.8575 55.0689 89.1801 56.5208C89.7944 57.1212 90.5218 57.5937 91.3201 57.9108L89.7301 62.0708Z" fill="#B20F93"/>
<defs>
<filter id="filter0_d" x="0.631836" y="0.503906" width="150" height="150" filterUnits="userSpaceOnUse" color-interpolation-filters="sRGB">
<feFlood flood-opacity="0" result="BackgroundImageFix"/>
<feColorMatrix in="SourceAlpha" type="matrix" values="0 0 0 0 0 0 0 0 0 0 0 0 0 0 0 0 0 0 127 0"/>
<feOffset dy="20"/>
<feGaussianBlur stdDeviation="20"/>
<feColorMatrix type="matrix" values="0 0 0 0 0 0 0 0 0 0 0 0 0 0 0 0 0 0 0.2 0"/>
<feBlend mode="normal" in2="BackgroundImageFix" result="effect1_dropShadow"/>
<feBlend mode="normal" in="SourceGraphic" in2="effect1_dropShadow" result="shape"/>
</filter>
</defs>
</svg>
