<svg width="121" height="122" viewBox="0 0 121 122" fill="none" xmlns="http://www.w3.org/2000/svg">
<rect x="31" y="22.2344" width="3.45025" height="3.59612" rx="1.72512" fill="#FFDB93"/>
<rect x="41.7817" y="28.9766" width="3.45025" height="3.5962" rx="1.72512" fill="#FFDB93"/>
<rect x="76.2847" y="51.457" width="6.03793" height="6.29317" rx="3.01896" fill="#FFDB93"/>
<rect x="84.9097" y="33.4727" width="3.45025" height="3.59612" rx="1.72512" fill="#FFDB93"/>
<rect x="84.9097" y="24.4844" width="1.72512" height="1.79803" rx="0.862562" fill="#FFDB93"/>
<rect x="46.0952" y="19.9883" width="1.72512" height="1.79796" rx="0.862562" fill="#FFDB93"/>
<rect x="63.3457" y="11" width="1.72512" height="1.79796" rx="0.862562" fill="#FFDB93"/>
<rect x="37.4692" y="51.457" width="1.72512" height="1.79789" rx="0.862562" fill="#FFDB93"/>
<g filter="url(#filter0_d)">
<rect x="40.0571" y="20.4453" width="40.5578" height="40.5578" rx="20.2789" fill="white"/>
</g>
<path d="M68.8529 48.9961H52.8824C51.5588 48.9961 50.5 47.9373 50.5 46.6137V36.3784C50.5 35.0549 51.5588 33.9961 52.8824 33.9961H68.8088C70.1324 33.9961 71.1912 35.0549 71.1912 36.3784V46.5696C71.2353 47.9373 70.1765 48.9961 68.8529 48.9961ZM52.8824 34.8784C52.0441 34.8784 51.3824 35.5402 51.3824 36.3784V46.5696C51.3824 47.452 52.0441 48.1137 52.8824 48.1137H68.8088C69.6471 48.1137 70.3088 47.452 70.3088 46.6137V36.3784C70.3088 35.5402 69.6471 34.8784 68.8088 34.8784H52.8824Z" fill="#B20F93"/>
<path d="M70.7943 37.5273H50.9414V38.4097H70.7943V37.5273Z" fill="#B20F93"/>
<path d="M66.3581 42.5898C66.019 42.5898 65.705 42.6983 65.4481 42.8819C65.1912 42.6983 64.8772 42.5898 64.5381 42.5898C63.6728 42.5898 62.9688 43.2939 62.9688 44.1592C62.9688 45.0246 63.6728 45.7286 64.5381 45.7286C64.8772 45.7286 65.1912 45.6201 65.4481 45.4366C65.705 45.6201 66.019 45.7286 66.3581 45.7286C67.2235 45.7286 67.9275 45.0246 67.9275 44.1592C67.9275 43.2939 67.2235 42.5898 66.3581 42.5898ZM65.0017 44.947C64.8657 45.0274 64.7073 45.0737 64.5381 45.0737C64.0339 45.0737 63.6237 44.6635 63.6237 44.1592C63.6237 43.655 64.0339 43.2447 64.5381 43.2447C64.7073 43.2447 64.8657 43.291 65.0017 43.3714C64.8666 43.6031 64.7888 43.8722 64.7888 44.1592C64.7888 44.4462 64.8666 44.7153 65.0017 44.947ZM66.3581 45.0737C65.8539 45.0737 65.4436 44.6635 65.4436 44.1592C65.4436 43.655 65.8539 43.2447 66.3581 43.2447C66.8624 43.2447 67.2726 43.655 67.2726 44.1592C67.2726 44.6635 66.8624 45.0737 66.3581 45.0737Z" fill="#B20F93"/>
<defs>
<filter id="filter0_d" x="0.0571289" y="0.445312" width="120.558" height="120.558" filterUnits="userSpaceOnUse" color-interpolation-filters="sRGB">
<feFlood flood-opacity="0" result="BackgroundImageFix"/>
<feColorMatrix in="SourceAlpha" type="matrix" values="0 0 0 0 0 0 0 0 0 0 0 0 0 0 0 0 0 0 127 0"/>
<feOffset dy="20"/>
<feGaussianBlur stdDeviation="20"/>
<feColorMatrix type="matrix" values="0 0 0 0 0 0 0 0 0 0 0 0 0 0 0 0 0 0 0.2 0"/>
<feBlend mode="normal" in2="BackgroundImageFix" result="effect1_dropShadow"/>
<feBlend mode="normal" in="SourceGraphic" in2="effect1_dropShadow" result="shape"/>
</filter>
</defs>
</svg>
