<svg width="151" height="150" viewBox="0 0 151 150" fill="none" xmlns="http://www.w3.org/2000/svg">
<rect x="43.4434" y="44.7422" width="5.9549" height="6.20654" rx="2.97745" fill="#FFDB93"/>
<rect x="102.992" y="73.5312" width="10.4211" height="10.8611" rx="5.21054" fill="#FFDB93"/>
<rect x="117.88" y="42.5" width="5.9549" height="6.20703" rx="2.97745" fill="#FFDB93"/>
<rect x="36" y="83.5312" width="2.97748" height="3.10327" rx="1.48874" fill="#FFDB93"/>
<g filter="url(#filter0_d)">
<rect x="40.4658" y="20" width="70" height="70" rx="35" fill="white"/>
</g>
<g clip-path="url(#clip0)">
<path d="M94.2002 50.5016L71.536 41.0527C71.3249 40.9646 71.084 40.988 70.8938 41.1148C70.7037 41.2416 70.5894 41.4551 70.5894 41.6836V60.5815C70.5894 61.06 71.0925 61.3976 71.536 61.2124L94.2002 51.7634C94.4549 51.6573 94.6207 51.4084 94.6207 51.1325C94.6207 50.8566 94.4549 50.6077 94.2002 50.5016ZM71.9565 59.5559V42.7092L92.1607 51.1325L71.9565 59.5559Z" fill="#B20F93"/>
<path d="M73.8509 46.0335L76.2962 47.0529C76.3822 47.0887 76.4713 47.1057 76.559 47.1057C76.8266 47.1057 77.0808 46.9474 77.1902 46.6849C77.3355 46.3364 77.1707 45.9363 76.8222 45.7909L74.3769 44.7715C74.0286 44.6264 73.6283 44.7909 73.4829 45.1395C73.3377 45.4879 73.5025 45.8881 73.8509 46.0335Z" fill="#B20F93"/>
<path d="M79.3358 48.3187L87.5952 51.762C87.6812 51.7979 87.7703 51.8149 87.858 51.8149C88.1256 51.8149 88.3798 51.6566 88.4892 51.3941C88.6345 51.0456 88.4697 50.6454 88.1212 50.5001L79.8618 47.0567C79.5135 46.9115 79.1132 47.0761 78.9679 47.4247C78.8225 47.7732 78.9873 48.1734 79.3358 48.3187Z" fill="#B20F93"/>
<path d="M72.9912 74.6327H69.8424V41.6836C69.8424 41.3061 69.5363 41 69.1588 41C68.7813 41 68.4752 41.3061 68.4752 41.6836V74.6327H65.062C64.6845 74.6327 64.3784 74.9389 64.3784 75.3163C64.3784 75.6938 64.6845 75.9999 65.062 75.9999H69.1588H72.9912C73.3687 75.9999 73.6748 75.6938 73.6748 75.3163C73.6748 74.9389 73.3688 74.6327 72.9912 74.6327Z" fill="#B20F93"/>
<path d="M76.8237 74.6328H76.0308C75.6533 74.6328 75.3472 74.9389 75.3472 75.3164C75.3472 75.6939 75.6533 76 76.0308 76H76.8237C77.2011 76 77.5073 75.6939 77.5073 75.3164C77.5073 74.9389 77.2011 74.6328 76.8237 74.6328Z" fill="#B20F93"/>
</g>
<defs>
<filter id="filter0_d" x="0.46582" y="0" width="150" height="150" filterUnits="userSpaceOnUse" color-interpolation-filters="sRGB">
<feFlood flood-opacity="0" result="BackgroundImageFix"/>
<feColorMatrix in="SourceAlpha" type="matrix" values="0 0 0 0 0 0 0 0 0 0 0 0 0 0 0 0 0 0 127 0"/>
<feOffset dy="20"/>
<feGaussianBlur stdDeviation="20"/>
<feColorMatrix type="matrix" values="0 0 0 0 0.807681 0 0 0 0 0.855688 0 0 0 0 0.892459 0 0 0 1 0"/>
<feBlend mode="normal" in2="BackgroundImageFix" result="effect1_dropShadow"/>
<feBlend mode="normal" in="SourceGraphic" in2="effect1_dropShadow" result="shape"/>
</filter>
<clipPath id="clip0">
<rect width="35" height="35" fill="white" transform="translate(62 41)"/>
</clipPath>
</defs>
</svg>
