<svg width="411" height="328" viewBox="0 0 411 328" fill="none" xmlns="http://www.w3.org/2000/svg">
<g filter="url(#filter0_d)">
<rect x="55" y="194" width="280.189" height="90" rx="3" fill="#F342D1"/>
</g>
<path d="M170.078 225.573C170.451 225.573 170.751 225.693 170.978 225.933C171.205 226.16 171.318 226.467 171.318 226.853V238.693C171.318 239.067 171.211 239.36 170.998 239.573C170.785 239.787 170.505 239.893 170.158 239.893C169.811 239.893 169.538 239.787 169.338 239.573C169.138 239.36 169.038 239.067 169.038 238.693V230.453L165.638 236.893C165.478 237.187 165.305 237.407 165.118 237.553C164.931 237.687 164.711 237.753 164.458 237.753C164.205 237.753 163.985 237.687 163.798 237.553C163.611 237.42 163.438 237.2 163.278 236.893L159.858 230.553V238.693C159.858 239.053 159.751 239.347 159.538 239.573C159.338 239.787 159.065 239.893 158.718 239.893C158.371 239.893 158.098 239.787 157.898 239.573C157.698 239.36 157.598 239.067 157.598 238.693V226.853C157.598 226.467 157.705 226.16 157.918 225.933C158.145 225.693 158.445 225.573 158.818 225.573C159.338 225.573 159.745 225.86 160.038 226.433L164.478 234.893L168.898 226.433C169.191 225.86 169.585 225.573 170.078 225.573ZM180.974 230.513C181.081 230.273 181.221 230.1 181.394 229.993C181.581 229.873 181.781 229.813 181.994 229.813C182.301 229.813 182.574 229.92 182.814 230.133C183.068 230.333 183.194 230.587 183.194 230.893C183.194 231.04 183.154 231.193 183.074 231.353L177.614 242.793C177.388 243.247 177.034 243.473 176.554 243.473C176.248 243.473 175.974 243.373 175.734 243.173C175.508 242.987 175.394 242.747 175.394 242.453C175.394 242.307 175.434 242.14 175.514 241.953L176.874 239.093L173.154 231.353C173.088 231.22 173.054 231.067 173.054 230.893C173.054 230.587 173.181 230.327 173.434 230.113C173.701 229.9 174.001 229.793 174.334 229.793C174.561 229.793 174.768 229.853 174.954 229.973C175.141 230.08 175.288 230.253 175.394 230.493L178.194 236.673L180.974 230.513ZM195.212 239.953C194.185 239.953 193.212 239.82 192.292 239.553C191.385 239.273 190.645 238.9 190.072 238.433C189.765 238.207 189.612 237.887 189.612 237.473C189.612 237.193 189.692 236.953 189.852 236.753C190.025 236.54 190.225 236.433 190.452 236.433C190.692 236.433 190.965 236.527 191.272 236.713C191.845 237.127 192.445 237.427 193.072 237.613C193.698 237.8 194.392 237.893 195.152 237.893C196.125 237.893 196.872 237.727 197.392 237.393C197.912 237.047 198.172 236.547 198.172 235.893C198.172 235.387 197.925 235 197.432 234.733C196.952 234.453 196.145 234.187 195.012 233.933C193.838 233.68 192.885 233.387 192.152 233.053C191.418 232.72 190.865 232.293 190.492 231.773C190.118 231.253 189.932 230.593 189.932 229.793C189.932 228.967 190.165 228.227 190.632 227.573C191.098 226.92 191.745 226.413 192.572 226.053C193.412 225.68 194.352 225.493 195.392 225.493C197.298 225.493 198.852 226 200.052 227.013C200.225 227.16 200.345 227.307 200.412 227.453C200.492 227.587 200.532 227.76 200.532 227.973C200.532 228.253 200.445 228.5 200.272 228.713C200.112 228.913 199.918 229.013 199.692 229.013C199.558 229.013 199.432 228.993 199.312 228.953C199.205 228.913 199.058 228.84 198.872 228.733C198.325 228.333 197.792 228.04 197.272 227.853C196.765 227.653 196.138 227.553 195.392 227.553C194.485 227.553 193.765 227.74 193.232 228.113C192.712 228.473 192.452 228.98 192.452 229.633C192.452 230.18 192.685 230.6 193.152 230.893C193.618 231.187 194.412 231.46 195.532 231.713C196.718 231.98 197.678 232.28 198.412 232.613C199.158 232.933 199.725 233.347 200.112 233.853C200.512 234.36 200.712 234.993 200.712 235.753C200.712 236.58 200.478 237.313 200.012 237.953C199.558 238.58 198.912 239.073 198.072 239.433C197.245 239.78 196.292 239.953 195.212 239.953ZM207.325 239.933C206.325 239.933 205.445 239.727 204.685 239.313C203.939 238.9 203.359 238.307 202.945 237.533C202.532 236.76 202.325 235.86 202.325 234.833C202.325 233.807 202.532 232.913 202.945 232.153C203.359 231.38 203.939 230.787 204.685 230.373C205.445 229.96 206.325 229.753 207.325 229.753C208.325 229.753 209.199 229.96 209.945 230.373C210.705 230.787 211.285 231.38 211.685 232.153C212.099 232.913 212.305 233.807 212.305 234.833C212.305 235.86 212.099 236.76 211.685 237.533C211.285 238.307 210.705 238.9 209.945 239.313C209.199 239.727 208.325 239.933 207.325 239.933ZM207.305 237.993C208.119 237.993 208.739 237.727 209.165 237.193C209.592 236.66 209.805 235.873 209.805 234.833C209.805 233.807 209.592 233.027 209.165 232.493C208.739 231.947 208.125 231.673 207.325 231.673C206.525 231.673 205.905 231.947 205.465 232.493C205.039 233.027 204.825 233.807 204.825 234.833C204.825 235.873 205.039 236.66 205.465 237.193C205.892 237.727 206.505 237.993 207.305 237.993ZM220.049 229.753C221.223 229.753 222.096 230.087 222.669 230.753C223.243 231.42 223.529 232.427 223.529 233.773V238.693C223.529 239.067 223.416 239.36 223.189 239.573C222.976 239.787 222.676 239.893 222.289 239.893C221.903 239.893 221.596 239.787 221.369 239.573C221.143 239.36 221.029 239.067 221.029 238.693V233.913C221.029 233.153 220.883 232.6 220.589 232.253C220.309 231.907 219.863 231.733 219.249 231.733C218.529 231.733 217.949 231.96 217.509 232.413C217.083 232.867 216.869 233.473 216.869 234.233V238.693C216.869 239.067 216.756 239.36 216.529 239.573C216.303 239.787 215.996 239.893 215.609 239.893C215.223 239.893 214.916 239.787 214.689 239.573C214.476 239.36 214.369 239.067 214.369 238.693V230.953C214.369 230.607 214.483 230.327 214.709 230.113C214.936 229.9 215.243 229.793 215.629 229.793C215.976 229.793 216.256 229.9 216.469 230.113C216.696 230.313 216.809 230.58 216.809 230.913V231.453C217.143 230.907 217.589 230.487 218.149 230.193C218.709 229.9 219.343 229.753 220.049 229.753Z" fill="white"/>
<line x1="137.01" y1="223.867" x2="137.01" y2="261.226" stroke="white" stroke-opacity="0.1"/>
<rect x="156.038" y="257.98" width="43.3019" height="5.09434" rx="2.54717" fill="white" fill-opacity="0.4"/>
<rect x="216.321" y="257.98" width="63.6792" height="5.09434" rx="2.54717" fill="white" fill-opacity="0.4"/>
<path d="M103.173 261.171C102.77 261.007 102.313 261.205 102.152 261.613C102.017 261.954 101.675 262.183 101.301 262.183H98.4314C98.0574 262.183 97.7154 261.954 97.5806 261.613C97.4192 261.205 96.962 261.007 96.5593 261.171C96.1567 261.334 95.9611 261.798 96.1225 262.206C96.4998 263.159 97.406 263.775 98.4314 263.775H101.301C102.326 263.775 103.232 263.159 103.61 262.206C103.771 261.798 103.576 261.334 103.173 261.171Z" fill="white"/>
<path d="M112.397 257.069C112.183 255.954 111.506 254.989 110.537 254.419C110.713 254.274 110.879 254.112 111.029 253.935C111.773 253.059 112.103 251.901 111.933 250.758C111.657 248.902 110.878 247.167 109.678 245.742C108.78 244.675 107.676 243.815 106.441 243.21C107.953 241.576 108.88 239.38 108.88 236.968C108.88 232.794 106.104 229.265 102.325 228.178C102.839 227.555 103.12 226.777 103.12 225.955C103.12 224.336 101.821 223.02 100.224 223.02C100.224 223.02 100.224 223.02 100.224 223.02C99.5794 223.02 98.9756 223.232 98.5241 223.618C98.025 224.044 97.7502 224.643 97.7501 225.304C97.7501 225.744 98.1017 226.1 98.5355 226.1C98.9693 226.1 99.321 225.744 99.321 225.304C99.321 225.115 99.3934 224.957 99.5363 224.835C99.705 224.691 99.9492 224.611 100.224 224.611H100.224C100.955 224.611 101.549 225.214 101.549 225.954C101.549 226.456 101.357 226.928 101.007 227.282C100.657 227.637 100.192 227.832 99.6967 227.832C99.6966 227.832 99.6966 227.832 99.6966 227.832C99.6773 227.832 99.6585 227.834 99.6396 227.835C94.7734 227.957 90.8519 232.007 90.8518 236.968C90.8518 239.38 91.7792 241.576 93.2911 243.21C92.0558 243.815 90.9519 244.674 90.0539 245.742C88.8544 247.167 88.0747 248.902 87.799 250.758C87.6294 251.901 87.9587 253.059 88.7026 253.935C88.8534 254.112 89.0187 254.274 89.1948 254.419C88.2262 254.989 87.5484 255.954 87.3352 257.069C87.1213 258.187 87.3957 259.342 88.0879 260.238L89.7699 262.417C90.4495 263.297 91.4818 263.77 92.5288 263.77C93.1232 263.77 93.7225 263.617 94.2646 263.3C95.7617 262.424 96.4033 260.538 95.7569 258.913L94.7366 256.348C94.6684 256.177 94.5878 256.012 94.4979 255.854H100.259C100.692 255.854 101.044 255.498 101.044 255.058C101.044 254.619 100.692 254.262 100.259 254.262H93.0048V252.584C93.0048 252.368 93.1782 252.193 93.3915 252.193H106.341C106.554 252.193 106.727 252.368 106.727 252.584V254.373C105.948 254.806 105.333 255.5 104.995 256.348L103.975 258.913C103.329 260.538 103.97 262.424 105.467 263.3C106.009 263.617 106.608 263.77 107.203 263.77C108.25 263.77 109.282 263.297 109.962 262.417L111.644 260.238C112.336 259.342 112.611 258.187 112.397 257.069ZM92.4226 236.968C92.4226 232.808 95.7618 229.424 99.866 229.424C103.97 229.424 107.309 232.808 107.309 236.968C107.309 241.127 103.97 244.511 99.866 244.511C95.7617 244.511 92.4226 241.127 92.4226 236.968ZM93.2798 256.943L94.3002 259.509C94.6556 260.402 94.3026 261.44 93.4793 261.922C92.656 262.403 91.5931 262.195 91.0071 261.436L89.3251 259.257C88.9133 258.724 88.75 258.037 88.8773 257.372C89.0045 256.707 89.4094 256.132 89.9881 255.793C90.5667 255.455 91.261 255.387 91.8927 255.608C92.5244 255.829 93.03 256.315 93.2798 256.943ZM106.346 249.009C105.912 249.009 105.56 249.365 105.56 249.805V250.601H94.1768V249.805C94.1768 249.365 93.8252 249.009 93.3914 249.009C92.9576 249.009 92.6059 249.365 92.6059 249.805V250.768C91.9166 251.075 91.4339 251.774 91.4339 252.585V253.709C90.839 253.648 90.2871 253.36 89.8931 252.896C89.448 252.372 89.2509 251.679 89.3524 250.995C89.802 247.966 91.7948 245.464 94.5925 244.372C96.0763 245.461 97.8983 246.103 99.866 246.103C101.834 246.103 103.656 245.461 105.14 244.372C107.937 245.464 109.93 247.966 110.38 250.995C110.481 251.679 110.284 252.372 109.839 252.896C109.445 253.36 108.893 253.648 108.298 253.709V252.585C108.298 251.776 107.818 251.079 107.131 250.77V249.805C107.131 249.365 106.78 249.009 106.346 249.009ZM110.407 259.257L108.725 261.435C108.139 262.194 107.076 262.403 106.253 261.921C105.429 261.44 105.076 260.402 105.432 259.509L106.452 256.943C106.702 256.315 107.208 255.828 107.839 255.608C108.084 255.522 108.338 255.48 108.591 255.48C108.991 255.48 109.389 255.586 109.744 255.793C110.323 256.132 110.728 256.707 110.855 257.372C110.982 258.037 110.819 258.724 110.407 259.257Z" fill="white"/>
<path d="M103.934 254.495C103.787 254.347 103.585 254.262 103.378 254.262C103.172 254.262 102.969 254.347 102.823 254.495C102.677 254.643 102.593 254.848 102.593 255.058C102.593 255.268 102.677 255.472 102.823 255.62C102.969 255.769 103.172 255.854 103.378 255.854C103.585 255.854 103.787 255.769 103.934 255.62C104.08 255.472 104.164 255.267 104.164 255.058C104.164 254.848 104.08 254.643 103.934 254.495Z" fill="white"/>
<path d="M102.031 239.685C101.694 239.409 101.2 239.461 100.927 239.803C100.666 240.129 100.279 240.316 99.866 240.316C99.453 240.316 99.0662 240.129 98.8053 239.803C98.5322 239.461 98.0376 239.409 97.7006 239.685C97.3636 239.962 97.3118 240.463 97.585 240.805C98.1456 241.506 98.9771 241.908 99.866 241.908C100.755 241.908 101.586 241.506 102.147 240.805C102.42 240.463 102.368 239.962 102.031 239.685Z" fill="white"/>
<path d="M97.8813 236.405C97.1689 235.683 96.0096 235.683 95.297 236.405C94.9902 236.716 94.9902 237.22 95.297 237.531C95.6037 237.841 96.101 237.841 96.4077 237.531C96.5077 237.429 96.6705 237.429 96.7706 237.531C96.924 237.686 97.125 237.764 97.326 237.764C97.5269 237.764 97.728 237.686 97.8813 237.531C98.188 237.22 98.188 236.716 97.8813 236.405Z" fill="white"/>
<path d="M104.435 236.405C103.722 235.683 102.563 235.683 101.851 236.405C101.544 236.716 101.544 237.22 101.851 237.531C102.004 237.686 102.205 237.764 102.406 237.764C102.607 237.764 102.808 237.686 102.961 237.531C103.061 237.429 103.224 237.429 103.324 237.531C103.631 237.841 104.128 237.841 104.435 237.53C104.742 237.22 104.742 236.716 104.435 236.405Z" fill="white"/>
<g filter="url(#filter1_d)">
<rect x="40" y="36" width="280.188" height="90" rx="3" fill="#ED41CC"/>
</g>
<path d="M105.322 78.9683L104.323 77.9044L100.815 68.3982C100.218 66.7925 98.6896 65.7286 96.9849 65.7188H71.9345C70.2298 65.7188 68.7015 66.7925 68.1039 68.3982L64.6456 77.7862L63.2055 79.1259C61.9515 80.1996 61.2266 81.7758 61.2266 83.4307V97.2812C61.2364 99.5469 63.0684 101.379 65.3216 101.379H67.908C70.1613 101.379 71.9933 99.5469 72.0031 97.2812V95.2716H96.2991V97.2812C96.3089 99.5469 98.1409 101.379 100.394 101.379H102.981C105.234 101.379 107.066 99.5469 107.076 97.2812V83.0663C107.066 81.5197 106.439 80.042 105.322 78.9683ZM69.9457 69.0681C70.2592 68.2307 71.0528 67.6889 71.9345 67.6889H96.9947C97.8764 67.6889 98.67 68.2406 98.9835 69.0681L102.04 77.3429H99.7574C99.2186 73.6488 95.7995 71.0974 92.1257 71.649C89.1964 72.0825 86.8942 74.3974 86.4631 77.3429H66.8891L69.9457 69.0681ZM97.7589 77.3429H88.4421C88.9809 74.7521 91.5085 73.0971 94.0851 73.6389C95.9269 74.0329 97.367 75.481 97.7589 77.3429ZM70.0437 97.2812C70.0339 98.4633 69.0836 99.409 67.908 99.409H65.3216C64.146 99.409 63.1957 98.4633 63.1859 97.2812V94.7002C63.7737 95.0844 64.5477 95.2716 65.3216 95.2716H70.0437V97.2812ZM105.116 97.2812C105.106 98.4633 104.156 99.409 102.981 99.409H100.394C99.2186 99.409 98.2683 98.4534 98.2585 97.2812V95.2716H102.981C103.755 95.2716 104.528 95.0844 105.116 94.7002V97.2812ZM102.981 93.3014H65.3216C64.1558 93.3112 63.1957 92.3754 63.1859 91.1933V83.4307C63.1859 82.3471 63.666 81.3128 64.4889 80.6134C64.4987 80.6035 64.5183 80.5838 64.5281 80.574L65.8605 79.313H102.961L103.901 80.3277C103.911 80.3474 103.941 80.3572 103.95 80.3769C104.685 81.0764 105.106 82.0516 105.106 83.0663V91.1933H105.116C105.106 92.3655 104.146 93.3112 102.981 93.3014Z" fill="white"/>
<path d="M73.8292 83.5508H66.4558C65.9151 83.5508 65.4727 83.9753 65.4727 84.4942V89.3998C65.4727 89.9187 65.9151 90.3432 66.4558 90.3432H73.8292C74.3699 90.3432 74.8123 89.9187 74.8123 89.3998V84.4942C74.8123 83.9753 74.3699 83.5508 73.8292 83.5508ZM72.846 88.4564H67.4389V85.4376H72.846V88.4564Z" fill="white"/>
<path d="M100.997 83.5508H93.6237C93.083 83.5508 92.6406 83.9753 92.6406 84.4942V89.3998C92.6406 89.9187 93.083 90.3432 93.6237 90.3432H100.997C101.538 90.3432 101.98 89.9187 101.98 89.3998V84.4942C101.98 83.9753 101.538 83.5508 100.997 83.5508ZM100.014 88.4564H94.6069V85.4376H100.014V88.4564Z" fill="white"/>
<path d="M89.0744 86.9375H79.2265C78.6658 86.9375 78.207 87.5106 78.207 88.2111C78.207 88.9116 78.6658 89.4847 79.2265 89.4847H89.0744C89.6351 89.4847 90.0938 88.9116 90.0938 88.2111C90.0938 87.5106 89.6351 86.9375 89.0744 86.9375Z" fill="white"/>
<path d="M89.0744 84.4062H79.2265C78.6658 84.4062 78.207 84.7883 78.207 85.2553C78.207 85.7223 78.6658 86.1044 79.2265 86.1044H89.0744C89.6351 86.1044 90.0938 85.7223 90.0938 85.2553C90.0938 84.7883 89.6351 84.4062 89.0744 84.4062Z" fill="white"/>
<path d="M155.079 65.5812C155.452 65.5812 155.752 65.7012 155.979 65.9412C156.206 66.1679 156.319 66.4746 156.319 66.8612V78.7012C156.319 79.0746 156.212 79.3679 155.999 79.5812C155.786 79.7946 155.506 79.9013 155.159 79.9013C154.812 79.9013 154.539 79.7946 154.339 79.5812C154.139 79.3679 154.039 79.0746 154.039 78.7012V70.4612L150.639 76.9012C150.479 77.1946 150.306 77.4146 150.119 77.5612C149.932 77.6946 149.712 77.7612 149.459 77.7612C149.206 77.7612 148.986 77.6946 148.799 77.5612C148.612 77.4279 148.439 77.2079 148.279 76.9012L144.859 70.5612V78.7012C144.859 79.0612 144.752 79.3546 144.539 79.5812C144.339 79.7946 144.066 79.9013 143.719 79.9013C143.372 79.9013 143.099 79.7946 142.899 79.5812C142.699 79.3679 142.599 79.0746 142.599 78.7012V66.8612C142.599 66.4746 142.706 66.1679 142.919 65.9412C143.146 65.7012 143.446 65.5812 143.819 65.5812C144.339 65.5812 144.746 65.8679 145.039 66.4412L149.479 74.9012L153.899 66.4412C154.192 65.8679 154.586 65.5812 155.079 65.5812ZM165.975 70.5212C166.082 70.2812 166.222 70.1079 166.395 70.0012C166.582 69.8812 166.782 69.8212 166.995 69.8212C167.302 69.8212 167.575 69.9279 167.815 70.1412C168.069 70.3412 168.195 70.5946 168.195 70.9012C168.195 71.0479 168.155 71.2012 168.075 71.3612L162.615 82.8013C162.389 83.2546 162.035 83.4813 161.555 83.4813C161.249 83.4813 160.975 83.3813 160.735 83.1813C160.509 82.9946 160.395 82.7546 160.395 82.4613C160.395 82.3146 160.435 82.1479 160.515 81.9613L161.875 79.1012L158.155 71.3612C158.089 71.2279 158.055 71.0746 158.055 70.9012C158.055 70.5946 158.182 70.3346 158.435 70.1212C158.702 69.9079 159.002 69.8012 159.335 69.8012C159.562 69.8012 159.769 69.8612 159.955 69.9812C160.142 70.0879 160.289 70.2612 160.395 70.5012L163.195 76.6812L165.975 70.5212ZM184.013 72.5012C184.826 72.7279 185.453 73.1412 185.893 73.7412C186.346 74.3412 186.573 75.0746 186.573 75.9412C186.573 77.1412 186.139 78.0812 185.273 78.7612C184.419 79.4412 183.239 79.7812 181.733 79.7812H176.573C176.186 79.7812 175.879 79.6746 175.653 79.4612C175.439 79.2479 175.333 78.9479 175.333 78.5612V66.9012C175.333 66.5146 175.439 66.2146 175.653 66.0012C175.879 65.7879 176.186 65.6812 176.573 65.6812H181.533C182.999 65.6812 184.146 66.0079 184.973 66.6612C185.813 67.3012 186.233 68.2012 186.233 69.3612C186.233 70.1079 186.033 70.7546 185.633 71.3012C185.246 71.8479 184.706 72.2479 184.013 72.5012ZM177.853 71.6212H181.113C182.886 71.6212 183.773 70.9612 183.773 69.6412C183.773 68.9746 183.553 68.4812 183.113 68.1612C182.673 67.8412 182.006 67.6812 181.113 67.6812H177.853V71.6212ZM181.453 77.7812C182.386 77.7812 183.066 77.6146 183.493 77.2812C183.919 76.9479 184.133 76.4279 184.133 75.7212C184.133 75.0146 183.913 74.4879 183.473 74.1412C183.046 73.7946 182.373 73.6212 181.453 73.6212H177.853V77.7812H181.453ZM196.505 77.1012C196.732 77.1012 196.912 77.1879 197.045 77.3612C197.192 77.5346 197.265 77.7679 197.265 78.0612C197.265 78.4746 197.018 78.8212 196.525 79.1012C196.072 79.3546 195.558 79.5612 194.985 79.7212C194.412 79.8679 193.865 79.9413 193.345 79.9413C191.772 79.9413 190.525 79.4879 189.605 78.5812C188.685 77.6746 188.225 76.4346 188.225 74.8612C188.225 73.8612 188.425 72.9746 188.825 72.2012C189.225 71.4279 189.785 70.8279 190.505 70.4012C191.238 69.9746 192.065 69.7612 192.985 69.7612C193.865 69.7612 194.632 69.9546 195.285 70.3412C195.938 70.7279 196.445 71.2746 196.805 71.9812C197.165 72.6879 197.345 73.5212 197.345 74.4812C197.345 75.0546 197.092 75.3412 196.585 75.3412H190.685C190.765 76.2612 191.025 76.9412 191.465 77.3812C191.905 77.8079 192.545 78.0212 193.385 78.0212C193.812 78.0212 194.185 77.9679 194.505 77.8612C194.838 77.7546 195.212 77.6079 195.625 77.4212C196.025 77.2079 196.318 77.1012 196.505 77.1012ZM193.045 71.5212C192.365 71.5212 191.818 71.7346 191.405 72.1612C191.005 72.5879 190.765 73.2012 190.685 74.0012H195.205C195.178 73.1879 194.978 72.5746 194.605 72.1612C194.232 71.7346 193.712 71.5212 193.045 71.5212ZM205.07 69.7612C206.243 69.7612 207.117 70.0946 207.69 70.7612C208.263 71.4279 208.55 72.4346 208.55 73.7812V78.7012C208.55 79.0746 208.437 79.3679 208.21 79.5812C207.997 79.7946 207.697 79.9013 207.31 79.9013C206.923 79.9013 206.617 79.7946 206.39 79.5812C206.163 79.3679 206.05 79.0746 206.05 78.7012V73.9212C206.05 73.1612 205.903 72.6079 205.61 72.2612C205.33 71.9146 204.883 71.7412 204.27 71.7412C203.55 71.7412 202.97 71.9679 202.53 72.4212C202.103 72.8746 201.89 73.4812 201.89 74.2412V78.7012C201.89 79.0746 201.777 79.3679 201.55 79.5812C201.323 79.7946 201.017 79.9013 200.63 79.9013C200.243 79.9013 199.937 79.7946 199.71 79.5812C199.497 79.3679 199.39 79.0746 199.39 78.7012V70.9612C199.39 70.6146 199.503 70.3346 199.73 70.1212C199.957 69.9079 200.263 69.8012 200.65 69.8012C200.997 69.8012 201.277 69.9079 201.49 70.1212C201.717 70.3212 201.83 70.5879 201.83 70.9212V71.4612C202.163 70.9146 202.61 70.4946 203.17 70.2012C203.73 69.9079 204.363 69.7612 205.07 69.7612ZM218.369 77.9012C219.116 77.9012 219.489 78.2146 219.489 78.8412C219.489 79.1346 219.396 79.3679 219.209 79.5412C219.022 79.7012 218.742 79.7812 218.369 79.7812H211.689C211.356 79.7812 211.082 79.6746 210.869 79.4612C210.656 79.2479 210.549 78.9946 210.549 78.7012C210.549 78.3946 210.669 78.1012 210.909 77.8212L216.049 71.8812H211.589C211.216 71.8812 210.936 71.8012 210.749 71.6412C210.562 71.4812 210.469 71.2479 210.469 70.9412C210.469 70.6346 210.562 70.4012 210.749 70.2412C210.936 70.0812 211.216 70.0012 211.589 70.0012H218.049C218.396 70.0012 218.669 70.1079 218.869 70.3212C219.082 70.5212 219.189 70.7746 219.189 71.0812C219.189 71.4012 219.076 71.6946 218.849 71.9612L213.689 77.9012H218.369ZM225.49 79.9413C224.49 79.9413 223.61 79.7346 222.85 79.3212C222.104 78.9079 221.524 78.3146 221.11 77.5412C220.697 76.7679 220.49 75.8679 220.49 74.8412C220.49 73.8146 220.697 72.9212 221.11 72.1612C221.524 71.3879 222.104 70.7946 222.85 70.3812C223.61 69.9679 224.49 69.7612 225.49 69.7612C226.49 69.7612 227.364 69.9679 228.11 70.3812C228.87 70.7946 229.45 71.3879 229.85 72.1612C230.264 72.9212 230.47 73.8146 230.47 74.8412C230.47 75.8679 230.264 76.7679 229.85 77.5412C229.45 78.3146 228.87 78.9079 228.11 79.3212C227.364 79.7346 226.49 79.9413 225.49 79.9413ZM225.47 78.0012C226.284 78.0012 226.904 77.7346 227.33 77.2012C227.757 76.6679 227.97 75.8812 227.97 74.8412C227.97 73.8146 227.757 73.0346 227.33 72.5012C226.904 71.9546 226.29 71.6812 225.49 71.6812C224.69 71.6812 224.07 71.9546 223.63 72.5012C223.204 73.0346 222.99 73.8146 222.99 74.8412C222.99 75.8812 223.204 76.6679 223.63 77.2012C224.057 77.7346 224.67 78.0012 225.47 78.0012Z" fill="white"/>
<line x1="122.008" y1="64.875" x2="122.008" y2="102.233" stroke="white" stroke-opacity="0.1"/>
<rect x="141.039" y="97.9688" width="43.3019" height="5.09434" rx="2.54717" fill="white" fill-opacity="0.4"/>
<rect x="201.32" y="97.9688" width="63.6792" height="5.09434" rx="2.54717" fill="white" fill-opacity="0.4"/>
<g filter="url(#filter2_d)">
<rect x="90" y="114" width="280.189" height="90" rx="3" fill="#5C2684"/>
</g>
<path d="M197.178 155.873C196.778 155.873 196.458 155.76 196.218 155.533C195.991 155.293 195.878 154.98 195.878 154.593V143.793H192.238C191.438 143.793 191.038 143.44 191.038 142.733C191.038 142.027 191.438 141.673 192.238 141.673H202.098C202.898 141.673 203.298 142.027 203.298 142.733C203.298 143.44 202.898 143.793 202.098 143.793H198.458V154.593C198.458 154.98 198.338 155.293 198.098 155.533C197.871 155.76 197.565 155.873 197.178 155.873ZM208.501 145.793C208.848 145.767 209.121 145.84 209.321 146.013C209.521 146.187 209.621 146.447 209.621 146.793C209.621 147.153 209.535 147.42 209.361 147.593C209.188 147.767 208.875 147.88 208.421 147.933L207.821 147.993C207.035 148.073 206.455 148.34 206.081 148.793C205.721 149.247 205.541 149.813 205.541 150.493V154.693C205.541 155.08 205.421 155.38 205.181 155.593C204.941 155.793 204.641 155.893 204.281 155.893C203.921 155.893 203.621 155.793 203.381 155.593C203.155 155.38 203.041 155.08 203.041 154.693V146.953C203.041 146.58 203.155 146.293 203.381 146.093C203.621 145.893 203.915 145.793 204.261 145.793C204.608 145.793 204.888 145.893 205.101 146.093C205.315 146.28 205.421 146.553 205.421 146.913V147.713C205.675 147.127 206.048 146.673 206.541 146.353C207.048 146.033 207.608 145.853 208.221 145.813L208.501 145.793ZM214.898 145.753C216.258 145.753 217.265 146.093 217.918 146.773C218.585 147.44 218.918 148.46 218.918 149.833V154.713C218.918 155.073 218.812 155.36 218.598 155.573C218.385 155.773 218.092 155.873 217.718 155.873C217.372 155.873 217.085 155.767 216.858 155.553C216.645 155.34 216.538 155.06 216.538 154.713V154.273C216.312 154.793 215.952 155.2 215.458 155.493C214.978 155.787 214.418 155.933 213.778 155.933C213.125 155.933 212.532 155.8 211.998 155.533C211.465 155.267 211.045 154.9 210.738 154.433C210.432 153.967 210.278 153.447 210.278 152.873C210.278 152.153 210.458 151.587 210.818 151.173C211.192 150.76 211.792 150.46 212.618 150.273C213.445 150.087 214.585 149.993 216.038 149.993H216.538V149.533C216.538 148.88 216.398 148.407 216.118 148.113C215.838 147.807 215.385 147.653 214.758 147.653C214.372 147.653 213.978 147.713 213.578 147.833C213.178 147.94 212.705 148.1 212.158 148.313C211.812 148.487 211.558 148.573 211.398 148.573C211.158 148.573 210.958 148.487 210.798 148.313C210.652 148.14 210.578 147.913 210.578 147.633C210.578 147.407 210.632 147.213 210.738 147.053C210.858 146.88 211.052 146.72 211.318 146.573C211.785 146.32 212.338 146.12 212.978 145.973C213.632 145.827 214.272 145.753 214.898 145.753ZM214.278 154.133C214.945 154.133 215.485 153.913 215.898 153.473C216.325 153.02 216.538 152.44 216.538 151.733V151.313H216.178C215.285 151.313 214.592 151.353 214.098 151.433C213.605 151.513 213.252 151.653 213.038 151.853C212.825 152.053 212.718 152.327 212.718 152.673C212.718 153.1 212.865 153.453 213.158 153.733C213.465 154 213.838 154.133 214.278 154.133ZM228.279 146.513C228.386 146.273 228.526 146.093 228.699 145.973C228.886 145.853 229.086 145.793 229.299 145.793C229.606 145.793 229.879 145.9 230.119 146.113C230.373 146.313 230.499 146.567 230.499 146.873C230.499 147.033 230.459 147.193 230.379 147.353L226.679 155.093C226.559 155.347 226.386 155.54 226.159 155.673C225.946 155.807 225.706 155.873 225.439 155.873C225.186 155.873 224.939 155.807 224.699 155.673C224.473 155.54 224.299 155.347 224.179 155.093L220.459 147.353C220.393 147.22 220.359 147.067 220.359 146.893C220.359 146.587 220.486 146.327 220.739 146.113C221.006 145.9 221.306 145.793 221.639 145.793C222.119 145.793 222.473 146.027 222.699 146.493L225.499 152.673L228.279 146.513ZM239.57 153.093C239.797 153.093 239.977 153.18 240.11 153.353C240.257 153.527 240.33 153.76 240.33 154.053C240.33 154.467 240.084 154.813 239.59 155.093C239.137 155.347 238.624 155.553 238.05 155.713C237.477 155.86 236.93 155.933 236.41 155.933C234.837 155.933 233.59 155.48 232.67 154.573C231.75 153.667 231.29 152.427 231.29 150.853C231.29 149.853 231.49 148.967 231.89 148.193C232.29 147.42 232.85 146.82 233.57 146.393C234.304 145.967 235.13 145.753 236.05 145.753C236.93 145.753 237.697 145.947 238.35 146.333C239.004 146.72 239.51 147.267 239.87 147.973C240.23 148.68 240.41 149.513 240.41 150.473C240.41 151.047 240.157 151.333 239.65 151.333H233.75C233.83 152.253 234.09 152.933 234.53 153.373C234.97 153.8 235.61 154.013 236.45 154.013C236.877 154.013 237.25 153.96 237.57 153.853C237.904 153.747 238.277 153.6 238.69 153.413C239.09 153.2 239.384 153.093 239.57 153.093ZM236.11 147.513C235.43 147.513 234.884 147.727 234.47 148.153C234.07 148.58 233.83 149.193 233.75 149.993H238.27C238.244 149.18 238.044 148.567 237.67 148.153C237.297 147.727 236.777 147.513 236.11 147.513ZM243.695 155.893C243.335 155.893 243.035 155.793 242.795 155.593C242.569 155.38 242.455 155.08 242.455 154.693V142.753C242.455 142.367 242.569 142.073 242.795 141.873C243.035 141.673 243.335 141.573 243.695 141.573C244.055 141.573 244.355 141.673 244.595 141.873C244.835 142.073 244.955 142.367 244.955 142.753V154.693C244.955 155.08 244.835 155.38 244.595 155.593C244.355 155.793 244.055 155.893 243.695 155.893Z" fill="white"/>
<line x1="172.009" y1="142.867" x2="172.009" y2="180.226" stroke="white" stroke-opacity="0.1"/>
<rect x="191.038" y="173.98" width="43.3019" height="5.09434" rx="2.54717" fill="white" fill-opacity="0.4"/>
<rect x="251.321" y="173.98" width="63.6792" height="5.09434" rx="2.54717" fill="white" fill-opacity="0.4"/>
<path d="M131.421 183.5H133.947V181.817H132.589L133.148 180.14C134.224 176.91 137.717 175.163 140.949 176.238C142.793 176.852 144.24 178.297 144.853 180.14L145.411 181.817H144.053V183.5H155V181.817H153.821L147.982 170.875H149.105V169.192H147.168L144.412 161.617H145.737V159.933H143.95L141.643 142.258H143.21V140.575H141.527V138.05C141.527 137.585 141.149 137.208 140.684 137.208H139.842V133H138.158V137.208H137.316C136.85 137.208 136.473 137.585 136.473 138.05V140.575H134.789V142.258H136.357L134.05 159.933H132.263V161.617H133.587L130.831 169.192H128.895V170.875H130.017L124.179 181.817H123V183.5H131.421ZM138.158 138.891H139.842V140.575H138.158V138.891ZM138.055 142.258H139.945L142.251 159.933H135.748L138.055 142.258ZM135.379 161.617H142.621L145.376 169.192H143.003L141.493 163.91C141.39 163.549 141.06 163.301 140.684 163.3H137.316C136.94 163.301 136.61 163.549 136.507 163.91L134.997 169.192H132.623L135.379 161.617ZM141.251 169.192H136.748L137.95 164.983H140.049L141.251 169.192ZM131.926 170.875H146.074L151.912 181.817H147.186L146.449 179.608C145.077 175.496 140.63 173.274 136.515 174.645C134.172 175.427 132.332 177.265 131.551 179.608L130.814 181.817H126.088L131.926 170.875Z" fill="white"/>
<defs>
<filter id="filter0_d" x="15" y="158" width="360.189" height="170" filterUnits="userSpaceOnUse" color-interpolation-filters="sRGB">
<feFlood flood-opacity="0" result="BackgroundImageFix"/>
<feColorMatrix in="SourceAlpha" type="matrix" values="0 0 0 0 0 0 0 0 0 0 0 0 0 0 0 0 0 0 127 0"/>
<feOffset dy="4"/>
<feGaussianBlur stdDeviation="20"/>
<feColorMatrix type="matrix" values="0 0 0 0 0 0 0 0 0 0 0 0 0 0 0 0 0 0 0.25 0"/>
<feBlend mode="normal" in2="BackgroundImageFix" result="effect1_dropShadow"/>
<feBlend mode="normal" in="SourceGraphic" in2="effect1_dropShadow" result="shape"/>
</filter>
<filter id="filter1_d" x="0" y="0" width="360.188" height="170" filterUnits="userSpaceOnUse" color-interpolation-filters="sRGB">
<feFlood flood-opacity="0" result="BackgroundImageFix"/>
<feColorMatrix in="SourceAlpha" type="matrix" values="0 0 0 0 0 0 0 0 0 0 0 0 0 0 0 0 0 0 127 0"/>
<feOffset dy="4"/>
<feGaussianBlur stdDeviation="20"/>
<feColorMatrix type="matrix" values="0 0 0 0 0 0 0 0 0 0 0 0 0 0 0 0 0 0 0.25 0"/>
<feBlend mode="normal" in2="BackgroundImageFix" result="effect1_dropShadow"/>
<feBlend mode="normal" in="SourceGraphic" in2="effect1_dropShadow" result="shape"/>
</filter>
<filter id="filter2_d" x="50" y="78" width="360.189" height="170" filterUnits="userSpaceOnUse" color-interpolation-filters="sRGB">
<feFlood flood-opacity="0" result="BackgroundImageFix"/>
<feColorMatrix in="SourceAlpha" type="matrix" values="0 0 0 0 0 0 0 0 0 0 0 0 0 0 0 0 0 0 127 0"/>
<feOffset dy="4"/>
<feGaussianBlur stdDeviation="20"/>
<feColorMatrix type="matrix" values="0 0 0 0 0 0 0 0 0 0 0 0 0 0 0 0 0 0 0.25 0"/>
<feBlend mode="normal" in2="BackgroundImageFix" result="effect1_dropShadow"/>
<feBlend mode="normal" in="SourceGraphic" in2="effect1_dropShadow" result="shape"/>
</filter>
</defs>
</svg>
