<svg width="913" height="246" viewBox="0 0 913 246" fill="none" xmlns="http://www.w3.org/2000/svg">
<path d="M80.1094 28.1953C80.2396 33.6641 78.2865 36.5938 74.25 36.9844C70.2135 37.375 67.2188 35.2266 65.2656 30.5391C66.0469 28.4557 66.3724 26.5026 66.2422 24.6797C65.9818 22.8568 65.4609 21.2943 64.6797 19.9922C62.987 17.2578 60.4479 15.4349 57.0625 14.5234C53.6771 13.612 50.4219 13.7422 47.2969 14.9141C45.7344 15.5651 44.237 16.6068 42.8047 18.0391C41.5026 19.3411 40.526 21.099 39.875 23.3125C38.8333 26.4375 38.8984 30.0182 40.0703 34.0547C41.112 37.9609 42.9349 42.1276 45.5391 46.5547C50.3568 54.888 56.737 63.8724 64.6797 73.5078C72.7526 83.1432 79.9141 92.7786 86.1641 102.414C90.3307 108.794 93.7812 115.044 96.5156 121.164C98.7292 126.633 99.901 131.906 100.031 136.984C100.031 137.635 99.9661 138.286 99.8359 138.938C99.4453 146.75 98.013 153.391 95.5391 158.859C93.0651 164.328 89.875 168.82 85.9688 172.336C78.6771 178.716 69.7578 181.971 59.2109 182.102H57.4531C47.4271 182.102 37.7266 180.344 28.3516 176.828C23.9245 175.266 20.1484 172.987 17.0234 169.992C13.8984 167.128 11.2292 163.872 9.01562 160.227C5.10938 153.586 2.63542 146.424 1.59375 138.742C0.682292 133.013 0.226562 128.195 0.226562 124.289C0.226562 122.987 0.291667 121.75 0.421875 120.578C0.682292 118.365 1.20312 116.411 1.98438 114.719C2.89583 113.026 3.8724 111.594 4.91406 110.422C8.42969 106.776 12.4661 105.279 17.0234 105.93C21.5807 106.581 23.7943 109.25 23.6641 113.938C19.888 116.281 18.0651 119.992 18.1953 125.07C18.4557 130.148 20.1484 135.096 23.2734 139.914C25.3568 143.169 27.9609 146.034 31.0859 148.508C34.2109 151.112 37.6615 152.935 41.4375 153.977C44.5625 154.888 47.8828 155.083 51.3984 154.562C54.9141 154.042 58.4297 152.609 61.9453 150.266C64.2891 148.703 65.8516 146.815 66.6328 144.602C67.4141 142.258 67.5443 139.654 67.0234 136.789C66.3724 131.451 64.0286 125.201 59.9922 118.039C56.0859 110.878 51.6589 103.326 46.7109 95.3828C42.6745 88.7422 38.5729 81.9714 34.4062 75.0703C30.3698 68.1693 26.9193 61.4635 24.0547 54.9531C21.1901 48.5729 19.237 42.5182 18.1953 36.7891C17.0234 31.0599 17.2188 25.7865 18.7812 20.9688C20.2135 16.9323 22.1667 13.4818 24.6406 10.6172C27.1146 7.88281 29.9141 5.66927 33.0391 3.97656C36.4245 2.28385 40.0052 1.17708 43.7812 0.65625C45.474 0.395833 47.1667 0.265625 48.8594 0.265625C50.9427 0.265625 52.9609 0.460938 54.9141 0.851562C61.8151 2.02344 67.8047 4.95312 72.8828 9.64062C77.9609 14.4583 80.3698 20.6432 80.1094 28.1953ZM179.523 82.4922C180.305 78.7161 182.844 76.8281 187.141 76.8281H189.289C194.758 77.4792 198.664 79.9531 201.008 84.25C201.659 85.6823 202.049 87.3099 202.18 89.1328C202.31 90.8255 201.984 92.7135 201.203 94.7969C198.99 97.1406 196.776 102.805 194.562 111.789C192.479 120.904 190.721 130.799 189.289 141.477C188.638 146.164 188.052 150.786 187.531 155.344C187.141 159.901 186.815 164.328 186.555 168.625C186.164 176.307 186.164 182.883 186.555 188.352C186.945 193.69 187.922 196.62 189.484 197.141C192.349 198.052 196.516 194.406 201.984 186.203C207.323 178 212.792 168.56 218.391 157.883C222.036 150.721 225.552 143.625 228.938 136.594C232.193 129.562 234.927 123.573 237.141 118.625C238.443 118.104 239.81 117.844 241.242 117.844C242.674 117.844 243.977 117.974 245.148 118.234C242.805 123.573 239.81 130.409 236.164 138.742C232.648 147.076 228.677 155.474 224.25 163.938C219.953 172.271 215.396 180.083 210.578 187.375C205.76 194.667 200.878 200.201 195.93 203.977C193.326 206.06 190.721 207.557 188.117 208.469C186.815 208.859 185.513 209.055 184.211 209.055C182.909 209.055 181.672 208.859 180.5 208.469C176.073 207.036 172.492 204.628 169.758 201.242C167.023 197.987 164.94 194.276 163.508 190.109C160.904 182.167 159.862 173.768 160.383 164.914C160.904 155.93 161.555 149.354 162.336 145.188C161.945 145.318 160.773 147.271 158.82 151.047C156.867 154.693 154.263 158.534 151.008 162.57C149.185 164.784 147.232 166.802 145.148 168.625C142.935 170.578 140.656 172.141 138.312 173.312C135.318 174.745 132.128 175.396 128.742 175.266C125.357 175.266 121.841 173.964 118.195 171.359C115.591 169.536 113.508 167.193 111.945 164.328C110.513 161.464 109.536 158.273 109.016 154.758C108.625 152.674 108.43 150.461 108.43 148.117C108.43 143.43 109.081 138.352 110.383 132.883C112.336 124.94 115.266 117.323 119.172 110.031C123.078 102.609 127.766 96.2292 133.234 90.8906C138.703 85.4219 144.367 82.2318 150.227 81.3203C151.659 81.0599 153.417 80.9297 155.5 80.9297C157.583 80.9297 159.732 81.0599 161.945 81.3203C165.982 81.7109 169.888 82.6224 173.664 84.0547C175.617 84.8359 177.18 85.7474 178.352 86.7891C178.872 84.9661 179.263 83.5339 179.523 82.4922ZM170.539 92.8438C168.195 92.8438 165.852 93.4297 163.508 94.6016C159.732 96.4245 156.216 99.4193 152.961 103.586C149.706 107.883 146.906 112.505 144.562 117.453C141.047 124.875 138.898 132.232 138.117 139.523C137.206 146.685 138.508 151.177 142.023 153C144.367 154.172 147.297 152.284 150.812 147.336C154.328 142.388 157.844 136.268 161.359 128.977C165.786 119.992 169.758 110.747 173.273 101.242C174.315 98.5078 175.161 96.099 175.812 94.0156C174.12 93.2344 172.362 92.8438 170.539 92.8438ZM252.375 79.5625C250.031 80.3438 249.445 83.9896 250.617 90.5C251.789 97.0104 253.872 104.497 256.867 112.961C259.211 119.602 261.815 126.307 264.68 133.078C267.674 139.979 270.409 145.839 272.883 150.656C274.315 153.391 275.617 155.734 276.789 157.688C277.961 159.51 278.938 160.878 279.719 161.789C280.37 160.878 281.672 157.688 283.625 152.219C284.667 148.833 285.773 145.253 286.945 141.477C283.69 139.133 280.956 135.161 278.742 129.562C275.878 122.271 274.445 114.654 274.445 106.711C274.315 102.544 274.706 98.5078 275.617 94.6016C276.398 90.6953 277.766 87.375 279.719 84.6406C281.021 82.6875 282.648 81.125 284.602 79.9531C286.555 78.7812 288.768 78.0651 291.242 77.8047C296.971 77.5443 301.333 78.5859 304.328 80.9297C307.323 83.4036 309.341 86.7891 310.383 91.0859C311.424 95.513 311.555 100.721 310.773 106.711C309.992 112.831 308.625 119.146 306.672 125.656C305.5 129.953 304.133 134.25 302.57 138.547L302.375 138.938C302.635 138.807 302.896 138.742 303.156 138.742C305.76 138.352 308.299 137.635 310.773 136.594C315.461 134.51 319.628 131.516 323.273 127.609C326.919 123.833 329.393 120.578 330.695 117.844C332.258 117.453 333.56 117.193 334.602 117.062C335.773 116.932 337.01 117.258 338.312 118.039C336.62 122.206 333.69 126.828 329.523 131.906C325.357 136.984 320.148 140.76 313.898 143.234C310.513 144.536 306.867 145.253 302.961 145.383H300.031L297.688 151.047C294.562 158.469 291.438 165.174 288.312 171.164C285.188 177.154 282.714 181.385 280.891 183.859C280.24 184.25 279.198 184.445 277.766 184.445C276.854 184.445 275.747 184.38 274.445 184.25C271.32 183.729 268.13 182.883 264.875 181.711C263.052 181.19 261.359 180.539 259.797 179.758C258.234 178.977 256.932 178.13 255.891 177.219C251.984 171.229 248.404 164.849 245.148 158.078C241.893 151.307 238.964 144.536 236.359 137.766C231.411 125.266 227.701 113.612 225.227 102.805C223.143 93.4297 222.102 86.5938 222.102 82.2969V80.5391C222.102 77.2839 224.25 74.6146 228.547 72.5312C231.281 71.2292 234.016 70.5781 236.75 70.5781C238.573 70.5781 240.396 70.8385 242.219 71.3594C244.172 71.8802 246.06 72.8568 247.883 74.2891C249.576 75.5911 251.073 77.349 252.375 79.5625ZM294.758 110.812C296.06 103.651 295.93 100.201 294.367 100.461C293.065 100.591 292.023 102.805 291.242 107.102C290.461 111.529 290.135 116.151 290.266 120.969C290.266 123.312 290.461 125.591 290.852 127.805C292.414 121.815 293.716 116.151 294.758 110.812ZM370.344 74.0938C373.469 74.0938 376.333 74.6146 378.938 75.6562C381.411 76.8281 383.495 78.3255 385.188 80.1484C388.573 83.6641 390.461 88.1562 390.852 93.625C391.242 98.9635 389.81 104.302 386.555 109.641C383.951 114.198 380.044 118.365 374.836 122.141C371.19 124.875 366.763 127.089 361.555 128.781C361.555 131.516 361.62 134.25 361.75 136.984C361.75 141.021 361.945 144.927 362.336 148.703C362.987 155.734 364.159 161.789 365.852 166.867C367.414 172.076 369.432 175.07 371.906 175.852C376.854 177.674 382.388 175.266 388.508 168.625C394.628 162.115 400.422 154.432 405.891 145.578C408.755 140.76 411.49 135.943 414.094 131.125C416.568 126.307 418.716 121.945 420.539 118.039C421.841 117.648 423.078 117.453 424.25 117.453C425.422 117.453 426.659 117.844 427.961 118.625C425.747 123.964 422.753 130.409 418.977 137.961C415.201 145.383 410.773 152.609 405.695 159.641C402.961 163.547 400.031 167.193 396.906 170.578C393.911 174.094 390.721 177.219 387.336 179.953C382.128 183.99 376.659 186.919 370.93 188.742C368.195 189.654 365.396 190.109 362.531 190.109C359.406 190.109 356.216 189.589 352.961 188.547C348.013 186.984 343.781 184.641 340.266 181.516C336.75 178.391 333.885 174.745 331.672 170.578C328.547 164.719 326.594 158.143 325.812 150.852C325.422 147.727 325.227 144.602 325.227 141.477C325.227 137.18 325.552 132.883 326.203 128.586C326.984 123.638 328.091 118.82 329.523 114.133C331.086 109.445 332.909 105.018 334.992 100.852C339.029 93.0391 344.042 86.6589 350.031 81.7109C356.151 76.6328 362.922 74.0938 370.344 74.0938ZM366.242 119.406C369.758 117.193 372.622 114.719 374.836 111.984C379.003 106.776 381.021 101.568 380.891 96.3594C380.891 91.151 379.393 88.6771 376.398 88.9375C371.971 89.1979 368.586 92.9089 366.242 100.07C364.159 106.451 362.792 113.612 362.141 121.555C363.573 120.904 364.94 120.188 366.242 119.406ZM550.031 74.0938C553.156 74.0938 556.021 74.6146 558.625 75.6562C561.099 76.8281 563.182 78.3255 564.875 80.1484C568.26 83.6641 570.148 88.1562 570.539 93.625C570.93 98.9635 569.497 104.302 566.242 109.641C563.638 114.198 559.732 118.365 554.523 122.141C550.878 124.875 546.451 127.089 541.242 128.781C541.242 131.516 541.307 134.25 541.438 136.984C541.438 141.021 541.633 144.927 542.023 148.703C542.674 155.734 543.846 161.789 545.539 166.867C547.102 172.076 549.12 175.07 551.594 175.852C556.542 177.674 562.076 175.266 568.195 168.625C574.315 162.115 580.109 154.432 585.578 145.578C588.443 140.76 591.177 135.943 593.781 131.125C596.255 126.307 598.404 121.945 600.227 118.039C601.529 117.648 602.766 117.453 603.938 117.453C605.109 117.453 606.346 117.844 607.648 118.625C605.435 123.964 602.44 130.409 598.664 137.961C594.888 145.383 590.461 152.609 585.383 159.641C582.648 163.547 579.719 167.193 576.594 170.578C573.599 174.094 570.409 177.219 567.023 179.953C561.815 183.99 556.346 186.919 550.617 188.742C547.883 189.654 545.083 190.109 542.219 190.109C539.094 190.109 535.904 189.589 532.648 188.547C527.701 186.984 523.469 184.641 519.953 181.516C516.438 178.391 513.573 174.745 511.359 170.578C508.234 164.719 506.281 158.143 505.5 150.852C505.109 147.727 504.914 144.602 504.914 141.477C504.914 137.18 505.24 132.883 505.891 128.586C506.672 123.638 507.779 118.82 509.211 114.133C510.773 109.445 512.596 105.018 514.68 100.852C518.716 93.0391 523.729 86.6589 529.719 81.7109C535.839 76.6328 542.609 74.0938 550.031 74.0938ZM545.93 119.406C549.445 117.193 552.31 114.719 554.523 111.984C558.69 106.776 560.708 101.568 560.578 96.3594C560.578 91.151 559.081 88.6771 556.086 88.9375C551.659 89.1979 548.273 92.9089 545.93 100.07C543.846 106.451 542.479 113.612 541.828 121.555C543.26 120.904 544.628 120.188 545.93 119.406ZM664.289 82.4922C665.07 78.7161 667.609 76.8281 671.906 76.8281H674.055C679.523 77.4792 683.43 79.9531 685.773 84.25C686.424 85.6823 686.815 87.3099 686.945 89.1328C687.076 90.8255 686.75 92.7135 685.969 94.7969C683.755 97.1406 681.542 102.805 679.328 111.789C677.245 120.904 675.487 130.799 674.055 141.477C673.404 146.164 672.818 150.786 672.297 155.344C671.906 159.901 671.581 164.328 671.32 168.625C670.93 176.307 670.93 182.883 671.32 188.352C671.711 193.69 672.688 196.62 674.25 197.141C677.115 198.052 681.281 194.406 686.75 186.203C692.089 178 697.557 168.56 703.156 157.883C706.802 150.721 710.318 143.625 713.703 136.594C716.958 129.562 719.693 123.573 721.906 118.625C723.208 118.104 724.576 117.844 726.008 117.844C727.44 117.844 728.742 117.974 729.914 118.234C727.57 123.573 724.576 130.409 720.93 138.742C717.414 147.076 713.443 155.474 709.016 163.938C704.719 172.271 700.161 180.083 695.344 187.375C690.526 194.667 685.643 200.201 680.695 203.977C678.091 206.06 675.487 207.557 672.883 208.469C671.581 208.859 670.279 209.055 668.977 209.055C667.674 209.055 666.438 208.859 665.266 208.469C660.839 207.036 657.258 204.628 654.523 201.242C651.789 197.987 649.706 194.276 648.273 190.109C645.669 182.167 644.628 173.768 645.148 164.914C645.669 155.93 646.32 149.354 647.102 145.188C646.711 145.318 645.539 147.271 643.586 151.047C641.633 154.693 639.029 158.534 635.773 162.57C633.951 164.784 631.997 166.802 629.914 168.625C627.701 170.578 625.422 172.141 623.078 173.312C620.083 174.745 616.893 175.396 613.508 175.266C610.122 175.266 606.607 173.964 602.961 171.359C600.357 169.536 598.273 167.193 596.711 164.328C595.279 161.464 594.302 158.273 593.781 154.758C593.391 152.674 593.195 150.461 593.195 148.117C593.195 143.43 593.846 138.352 595.148 132.883C597.102 124.94 600.031 117.323 603.938 110.031C607.844 102.609 612.531 96.2292 618 90.8906C623.469 85.4219 629.133 82.2318 634.992 81.3203C636.424 81.0599 638.182 80.9297 640.266 80.9297C642.349 80.9297 644.497 81.0599 646.711 81.3203C650.747 81.7109 654.654 82.6224 658.43 84.0547C660.383 84.8359 661.945 85.7474 663.117 86.7891C663.638 84.9661 664.029 83.5339 664.289 82.4922ZM655.305 92.8438C652.961 92.8438 650.617 93.4297 648.273 94.6016C644.497 96.4245 640.982 99.4193 637.727 103.586C634.471 107.883 631.672 112.505 629.328 117.453C625.812 124.875 623.664 132.232 622.883 139.523C621.971 146.685 623.273 151.177 626.789 153C629.133 154.172 632.062 152.284 635.578 147.336C639.094 142.388 642.609 136.268 646.125 128.977C650.552 119.992 654.523 110.747 658.039 101.242C659.081 98.5078 659.927 96.099 660.578 94.0156C658.885 93.2344 657.128 92.8438 655.305 92.8438ZM753.742 90.1094C752.701 93.3646 751.008 95.0573 748.664 95.1875C746.32 95.3177 743.911 94.9271 741.438 94.0156C741.698 90.8906 741.503 88.3516 740.852 86.3984C740.201 84.3151 739.224 82.6875 737.922 81.5156C735.578 79.4323 732.844 78.7161 729.719 79.3672C726.464 79.888 724.185 81.4505 722.883 84.0547C721.841 86.0078 721.841 88.026 722.883 90.1094C723.924 92.0625 725.747 94.2109 728.352 96.5547C733.039 100.721 739.289 105.344 747.102 110.422C755.044 115.5 762.206 121.359 768.586 128C772.753 132.427 776.138 137.115 778.742 142.062C780.435 141.021 782.062 139.979 783.625 138.938C793.13 132.688 799.055 126.633 801.398 120.773C802.831 120.253 804.068 119.992 805.109 119.992C806.281 119.862 807.714 120.057 809.406 120.578C807.062 126.438 802.57 132.167 795.93 137.766C791.372 141.672 786.62 145.448 781.672 149.094C782.714 152.479 783.234 156.06 783.234 159.836C783.234 165.956 782.193 171.49 780.109 176.438C778.156 181.255 775.552 185.422 772.297 188.938C769.562 191.802 766.568 194.276 763.312 196.359C760.057 198.443 756.737 200.07 753.352 201.242C748.794 202.805 744.432 203.586 740.266 203.586C738.573 203.586 736.815 203.391 734.992 203C729.133 202.089 724.966 199.615 722.492 195.578C720.669 192.714 720.279 189.849 721.32 186.984C722.362 183.99 724.38 180.93 727.375 177.805C730.5 174.549 734.406 171.229 739.094 167.844C741.047 166.411 743.13 164.979 745.344 163.547V163.352C745.604 161.398 745.734 159.51 745.734 157.688C745.734 155.865 745.604 154.107 745.344 152.414C744.693 149.94 743.651 147.401 742.219 144.797C740.656 142.323 738.833 139.784 736.75 137.18C732.974 132.492 728.677 127.74 723.859 122.922C719.172 118.104 715.331 113.156 712.336 108.078C709.862 103.781 708.365 99.2891 707.844 94.6016C707.714 93.9505 707.648 93.2995 707.648 92.6484C707.648 88.612 708.951 84.4453 711.555 80.1484C712.857 77.9349 714.484 76.1771 716.438 74.875C718.391 73.4427 720.474 72.401 722.688 71.75C725.031 71.099 727.44 70.7734 729.914 70.7734C731.997 70.7734 734.146 71.0339 736.359 71.5547C741.047 72.5964 744.953 74.6797 748.078 77.8047C749.771 79.3672 751.138 81.1901 752.18 83.2734C753.091 85.3568 753.612 87.6354 753.742 90.1094ZM734.211 179.953C731.997 181.776 730.37 183.469 729.328 185.031C728.286 186.464 728.026 187.701 728.547 188.742C730.109 191.477 732.062 191.737 734.406 189.523C736.75 187.31 738.898 183.99 740.852 179.562C741.633 177.74 742.349 175.786 743 173.703C739.484 176.047 736.555 178.13 734.211 179.953ZM831.867 85.2266C831.216 90.4349 830.63 95.8385 830.109 101.438C829.719 107.036 829.458 112.505 829.328 117.844C828.938 127.74 829.068 136.333 829.719 143.625C830.37 150.786 831.672 154.367 833.625 154.367C836.49 154.497 839.484 151.177 842.609 144.406C845.734 137.635 848.339 129.628 850.422 120.383C851.464 115.174 852.31 109.901 852.961 104.562C853.612 99.224 853.938 94.0807 853.938 89.1328C854.198 87.1797 854.654 85.6172 855.305 84.4453C856.086 83.1432 857.062 82.1667 858.234 81.5156C861.62 79.5625 865.656 79.888 870.344 82.4922C875.031 84.9661 877.57 88.8073 877.961 94.0156C877.31 94.276 876.854 95.3177 876.594 97.1406C876.333 98.9635 876.073 101.307 875.812 104.172C875.552 109.771 875.487 116.932 875.617 125.656C875.617 134.51 875.487 143.951 875.227 153.977C875.227 155.018 875.161 155.995 875.031 156.906C877.115 154.562 879.263 152.154 881.477 149.68C886.034 144.471 890.331 139.133 894.367 133.664C898.404 128.195 901.789 122.727 904.523 117.258C905.956 116.867 907.258 116.607 908.43 116.477C909.732 116.346 911.099 116.542 912.531 117.062C909.536 123.443 905.891 129.693 901.594 135.812C897.297 141.932 892.805 147.857 888.117 153.586C883.56 158.924 879.068 164.068 874.641 169.016C874.641 170.708 874.641 172.401 874.641 174.094C874.25 180.865 873.729 187.505 873.078 194.016C871.776 205.865 869.628 216.346 866.633 225.461C863.638 234.576 859.341 240.5 853.742 243.234C850.096 244.927 846.776 245.773 843.781 245.773H842.805C839.68 245.513 837.076 244.406 834.992 242.453C831.086 238.938 829.263 233.143 829.523 225.07C829.784 216.997 832.518 208.339 837.727 199.094C840.982 193.234 846.451 186.398 854.133 178.586C854.263 171.685 854.263 165.174 854.133 159.055V145.383C853.612 147.727 852.245 150.982 850.031 155.148C847.557 159.445 844.497 163.221 840.852 166.477C838.898 168.169 836.75 169.536 834.406 170.578C832.193 171.62 829.849 172.141 827.375 172.141C822.167 172.141 817.87 170.904 814.484 168.43C811.099 165.826 808.495 162.375 806.672 158.078C804.589 153.781 803.221 148.768 802.57 143.039C801.919 137.31 801.594 131.581 801.594 125.852V125.266C801.594 121.359 801.659 117.518 801.789 113.742C802.049 109.836 802.31 106.19 802.57 102.805C803.091 96.2943 803.482 90.6953 803.742 86.0078C804.003 81.4505 803.612 78.7161 802.57 77.8047C804.263 74.5495 807.909 72.8568 813.508 72.7266H813.703C819.172 72.7266 823.729 74.224 827.375 77.2188C828.547 78.2604 829.589 79.4323 830.5 80.7344C831.281 82.0365 831.737 83.5339 831.867 85.2266ZM844.562 204.953C840.526 213.026 839.615 219.016 841.828 222.922C844.042 226.958 846.06 228.586 847.883 227.805C849.445 227.154 850.682 224.419 851.594 219.602C852.375 214.914 852.961 209.185 853.352 202.414C853.612 198.898 853.807 195.188 853.938 191.281C849.51 196.49 846.385 201.047 844.562 204.953Z" fill="white" fill-opacity="0.07"/>
</svg>
