<svg width="803" height="224" viewBox="0 0 803 224" fill="none" xmlns="http://www.w3.org/2000/svg">
<path d="M37.3672 70.1094C36.3255 73.3646 34.6328 75.0573 32.2891 75.1875C29.9453 75.3177 27.5365 74.9271 25.0625 74.0156C25.3229 70.8906 25.1276 68.3516 24.4766 66.3984C23.8255 64.3151 22.849 62.6875 21.5469 61.5156C19.2031 59.4323 16.4688 58.7161 13.3438 59.3672C10.0885 59.888 7.8099 61.4505 6.50781 64.0547C5.46615 66.0078 5.46615 68.026 6.50781 70.1094C7.54948 72.0625 9.3724 74.2109 11.9766 76.5547C16.6641 80.7214 22.9141 85.3438 30.7266 90.4219C38.6693 95.5 45.8307 101.359 52.2109 108C56.3776 112.427 59.763 117.115 62.3672 122.062C64.0599 121.021 65.6875 119.979 67.25 118.938C76.7552 112.688 82.6797 106.633 85.0234 100.773C86.4557 100.253 87.6927 99.9922 88.7344 99.9922C89.9062 99.862 91.3385 100.057 93.0312 100.578C90.6875 106.438 86.1953 112.167 79.5547 117.766C74.9974 121.672 70.2448 125.448 65.2969 129.094C66.3385 132.479 66.8594 136.06 66.8594 139.836C66.8594 145.956 65.8177 151.49 63.7344 156.438C61.7812 161.255 59.1771 165.422 55.9219 168.938C53.1875 171.802 50.1927 174.276 46.9375 176.359C43.6823 178.443 40.362 180.07 36.9766 181.242C32.4193 182.805 28.0573 183.586 23.8906 183.586C22.1979 183.586 20.4401 183.391 18.6172 183C12.7578 182.089 8.59115 179.615 6.11719 175.578C4.29427 172.714 3.90365 169.849 4.94531 166.984C5.98698 163.99 8.00521 160.93 11 157.805C14.125 154.549 18.0312 151.229 22.7188 147.844C24.6719 146.411 26.7552 144.979 28.9688 143.547V143.352C29.2292 141.398 29.3594 139.51 29.3594 137.688C29.3594 135.865 29.2292 134.107 28.9688 132.414C28.3177 129.94 27.276 127.401 25.8438 124.797C24.2812 122.323 22.4583 119.784 20.375 117.18C16.599 112.492 12.3021 107.74 7.48438 102.922C2.79688 98.1042 -1.04427 93.1562 -4.03906 88.0781C-6.51302 83.7812 -8.01042 79.2891 -8.53125 74.6016C-8.66146 73.9505 -8.72656 73.2995 -8.72656 72.6484C-8.72656 68.612 -7.42448 64.4453 -4.82031 60.1484C-3.51823 57.9349 -1.89062 56.1771 0.0625 54.875C2.01562 53.4427 4.09896 52.401 6.3125 51.75C8.65625 51.099 11.0651 50.7734 13.5391 50.7734C15.6224 50.7734 17.7708 51.0339 19.9844 51.5547C24.6719 52.5964 28.5781 54.6797 31.7031 57.8047C33.3958 59.3672 34.763 61.1901 35.8047 63.2734C36.7161 65.3568 37.237 67.6354 37.3672 70.1094ZM17.8359 159.953C15.6224 161.776 13.9948 163.469 12.9531 165.031C11.9115 166.464 11.651 167.701 12.1719 168.742C13.7344 171.477 15.6875 171.737 18.0312 169.523C20.375 167.31 22.5234 163.99 24.4766 159.562C25.2578 157.74 25.974 155.786 26.625 153.703C23.1094 156.047 20.1797 158.13 17.8359 159.953ZM125.258 54.0938C128.383 54.0938 131.247 54.6146 133.852 55.6562C136.326 56.8281 138.409 58.3255 140.102 60.1484C143.487 63.6641 145.375 68.1562 145.766 73.625C146.156 78.9635 144.724 84.3021 141.469 89.6406C138.865 94.1979 134.958 98.3646 129.75 102.141C126.104 104.875 121.677 107.089 116.469 108.781C116.469 111.516 116.534 114.25 116.664 116.984C116.664 121.021 116.859 124.927 117.25 128.703C117.901 135.734 119.073 141.789 120.766 146.867C122.328 152.076 124.346 155.07 126.82 155.852C131.768 157.674 137.302 155.266 143.422 148.625C149.542 142.115 155.336 134.432 160.805 125.578C163.669 120.76 166.404 115.943 169.008 111.125C171.482 106.307 173.63 101.945 175.453 98.0391C176.755 97.6484 177.992 97.4531 179.164 97.4531C180.336 97.4531 181.573 97.8438 182.875 98.625C180.661 103.964 177.667 110.409 173.891 117.961C170.115 125.383 165.688 132.609 160.609 139.641C157.875 143.547 154.945 147.193 151.82 150.578C148.826 154.094 145.635 157.219 142.25 159.953C137.042 163.99 131.573 166.919 125.844 168.742C123.109 169.654 120.31 170.109 117.445 170.109C114.32 170.109 111.13 169.589 107.875 168.547C102.927 166.984 98.6953 164.641 95.1797 161.516C91.6641 158.391 88.7995 154.745 86.5859 150.578C83.4609 144.719 81.5078 138.143 80.7266 130.852C80.3359 127.727 80.1406 124.602 80.1406 121.477C80.1406 117.18 80.4661 112.883 81.1172 108.586C81.8984 103.638 83.0052 98.8203 84.4375 94.1328C86 89.4453 87.8229 85.0182 89.9062 80.8516C93.9427 73.0391 98.9557 66.6589 104.945 61.7109C111.065 56.6328 117.836 54.0938 125.258 54.0938ZM121.156 99.4062C124.672 97.1927 127.536 94.7188 129.75 91.9844C133.917 86.776 135.935 81.5677 135.805 76.3594C135.805 71.151 134.307 68.6771 131.312 68.9375C126.885 69.1979 123.5 72.9089 121.156 80.0703C119.073 86.4505 117.706 93.612 117.055 101.555C118.487 100.904 119.854 100.188 121.156 99.4062ZM221.938 27.5312C223.37 28.5729 224.086 29.9401 224.086 31.6328C224.086 31.8932 224.021 32.0885 223.891 32.2188C223.76 34.3021 222.849 35.7995 221.156 36.7109H205.727C204.815 43.3516 203.773 51.0339 202.602 59.7578C200.909 71.9974 199.477 84.237 198.305 96.4766C197.263 106.633 196.547 116.203 196.156 125.188C195.896 134.172 196.156 141.529 196.938 147.258C197.458 150.383 198.174 152.922 199.086 154.875C199.997 156.828 201.169 158 202.602 158.391C206.378 159.562 210.74 156.698 215.688 149.797C220.635 142.766 225.388 134.693 229.945 125.578C232.549 120.63 234.958 115.747 237.172 110.93C239.516 106.112 241.599 101.75 243.422 97.8438C244.594 97.5833 245.831 97.388 247.133 97.2578C248.305 97.2578 249.542 97.6484 250.844 98.4297C247.719 105.982 243.292 115.552 237.562 127.141C231.703 138.729 225.128 148.82 217.836 157.414C213.018 163.143 207.94 167.57 202.602 170.695C199.086 172.648 195.57 173.625 192.055 173.625C190.232 173.625 188.409 173.365 186.586 172.844C183.461 171.932 180.857 170.174 178.773 167.57C176.69 165.096 174.932 161.971 173.5 158.195C171.156 151.164 169.919 142.505 169.789 132.219V129.484C169.789 119.979 170.31 110.018 171.352 99.6016C172.784 85.5391 174.737 71.737 177.211 58.1953C178.643 50.1224 179.945 42.8958 181.117 36.5156C177.471 36.3854 173.24 36.2552 168.422 36.125C166.078 36.3854 164.906 35.1484 164.906 32.4141V32.0234C165.036 29.1589 166.078 27.6615 168.031 27.5312C170.896 27.401 173.695 27.3359 176.43 27.3359C178.513 27.3359 180.596 27.401 182.68 27.5312C182.81 26.3594 183.005 25.2526 183.266 24.2109C184.047 19.3932 184.633 15.4219 185.023 12.2969C185.414 9.17188 185.414 7.34896 185.023 6.82812C185.284 5.78646 185.674 4.9401 186.195 4.28906C186.716 3.63802 187.367 3.05208 188.148 2.53125C189.451 1.88021 190.948 1.55469 192.641 1.55469C194.854 1.55469 197.328 2.20573 200.062 3.50781C204.88 5.72135 207.68 8.97656 208.461 13.2734C208.591 13.7943 208.526 15.487 208.266 18.3516C207.875 21.2161 207.419 24.7318 206.898 28.8984H209.242C212.237 28.8984 214.841 28.8333 217.055 28.7031C219.268 28.5729 220.896 28.1823 221.938 27.5312ZM388.148 62.2969C388.279 60.7344 388.669 59.4323 389.32 58.3906C389.971 57.349 390.753 56.5677 391.664 56.0469C394.398 54.4844 397.719 54.875 401.625 57.2188C405.661 59.5625 407.875 62.8828 408.266 67.1797C408.135 85.2786 407.94 101.424 407.68 115.617C407.549 123.039 407.354 129.94 407.094 136.32C409.438 133.716 411.911 130.982 414.516 128.117C423.109 118.612 429.815 108.977 434.633 99.2109C436.065 98.8203 437.367 98.625 438.539 98.625C439.711 98.7552 440.948 99.0807 442.25 99.6016C439.516 105.591 436.13 111.516 432.094 117.375C427.927 123.234 423.565 128.898 419.008 134.367C414.841 139.445 410.674 144.263 406.508 148.82C406.378 150.383 406.312 151.88 406.312 153.312C405.271 173.625 403.253 188.924 400.258 199.211C397.263 209.367 392.641 216.268 386.391 219.914C382.615 221.997 379.229 223.039 376.234 223.039C373.76 223.039 371.612 222.258 369.789 220.695C365.622 217.18 363.474 211.776 363.344 204.484C363.344 200.578 363.93 196.346 365.102 191.789C366.404 187.102 368.422 182.349 371.156 177.531C372.979 174.406 375.518 170.891 378.773 166.984C381.117 164.25 383.721 161.32 386.586 158.195C386.456 151.555 386.26 145.37 386 139.641C385.74 133.781 385.609 129.419 385.609 126.555C385.089 129.029 383.135 132.805 379.75 137.883C376.234 142.961 372.003 147.062 367.055 150.188C364.971 151.49 362.758 152.466 360.414 153.117C358.201 153.768 355.922 153.833 353.578 153.312C347.849 152.141 343.096 149.992 339.32 146.867C335.544 143.742 332.68 140.031 330.727 135.734C328.513 131.307 327.211 126.359 326.82 120.891C326.69 119.068 326.625 117.245 326.625 115.422C326.625 111.776 326.951 108 327.602 104.094C329.164 93.5469 332.615 83.651 337.953 74.4062C343.161 65.0312 348.956 58.7812 355.336 55.6562C358.982 53.9635 362.628 53.1172 366.273 53.1172C369.529 53.1172 372.784 53.8333 376.039 55.2656C381.898 58 385.935 61.3203 388.148 65.2266V62.2969ZM382.289 69.5234C380.466 69.0026 378.708 69.263 377.016 70.3047C374.021 72.1276 371.221 75.9688 368.617 81.8281C366.013 87.8177 363.865 94.1979 362.172 100.969C360.089 109.432 358.917 117.31 358.656 124.602C358.396 131.893 359.438 135.93 361.781 136.711C364.646 137.492 368.161 134.628 372.328 128.117C376.625 121.607 380.206 112.948 383.07 102.141C384.763 96.2812 386.065 89.9661 386.977 83.1953C387.367 80.3307 387.628 77.4661 387.758 74.6016C385.935 71.8672 384.112 70.1745 382.289 69.5234ZM377.602 183.195C376.039 186.32 374.932 189.315 374.281 192.18C373.63 195.174 373.305 197.844 373.305 200.188C373.305 204.875 374.086 208.391 375.648 210.734C377.211 213.078 378.773 213.469 380.336 211.906C383.461 208.391 385.349 201.424 386 191.008C386.391 184.237 386.586 177.401 386.586 170.5C382.419 175.318 379.424 179.549 377.602 183.195ZM461.391 50.1875C463.604 49.5365 465.622 49.2109 467.445 49.2109C471.091 49.2109 473.956 50.3177 476.039 52.5312C478.513 55.2656 479.424 57.8047 478.773 60.1484C479.815 59.6276 480.987 59.1719 482.289 58.7812C485.674 57.7396 488.799 57.4792 491.664 58C494.529 58.5208 497.068 59.6927 499.281 61.5156C503.318 64.7708 506.378 69.7839 508.461 76.5547C510.544 83.3255 511.586 90.7474 511.586 98.8203C511.586 104.159 511.195 109.628 510.414 115.227C510.154 116.398 509.958 117.57 509.828 118.742C511.391 118.352 512.953 117.896 514.516 117.375C519.464 115.552 523.695 113.013 527.211 109.758C530.727 106.633 533.07 103.833 534.242 101.359C535.935 100.969 537.302 100.708 538.344 100.578C539.385 100.448 540.622 100.773 542.055 101.555C541.143 103.768 539.841 106.112 538.148 108.586C536.456 111.06 534.503 113.339 532.289 115.422C527.862 119.589 522.328 122.779 515.688 124.992C513.344 125.773 510.805 126.294 508.07 126.555C507.68 128.117 507.224 129.68 506.703 131.242C503.708 140.878 499.281 149.016 493.422 155.656C487.693 162.427 480.596 165.812 472.133 165.812C465.492 165.812 459.503 164.25 454.164 161.125C448.695 158 444.073 153.898 440.297 148.82C433.135 139.445 428.839 127.857 427.406 114.055C427.016 111.06 426.82 108.13 426.82 105.266C426.82 94.849 428.969 85.2135 433.266 76.3594C436 70.3698 439.711 65.0964 444.398 60.5391C448.956 55.9818 454.62 52.5312 461.391 50.1875ZM465.883 62.6875C462.628 63.9896 459.893 66.0729 457.68 68.9375C454.294 73.3646 452.211 79.224 451.43 86.5156C450.518 93.8073 450.518 101.359 451.43 109.172C451.951 113.339 452.667 117.44 453.578 121.477C454.49 125.383 455.531 129.159 456.703 132.805C458.917 139.445 461.391 144.914 464.125 149.211C466.99 153.638 469.789 155.786 472.523 155.656C476.951 155.656 480.401 151.815 482.875 144.133C484.958 137.622 486.456 130.266 487.367 122.062C483.721 119.979 480.401 116.854 477.406 112.688C472.979 106.828 469.919 100.383 468.227 93.3516C467.185 89.5755 466.664 85.8646 466.664 82.2188C466.664 78.4427 467.25 74.9922 468.422 71.8672C469.594 68.8724 471.286 66.2031 473.5 63.8594C474.281 63.0781 475.193 62.2969 476.234 61.5156C472.328 61.125 468.878 61.5156 465.883 62.6875ZM488.734 105.07C488.995 100.904 489.06 96.8672 488.93 92.9609C488.799 85.7995 488.279 79.875 487.367 75.1875C486.586 70.5 485.544 68.4167 484.242 68.9375C483.331 69.3281 482.81 71.5417 482.68 75.5781C482.549 79.6146 482.81 84.3021 483.461 89.6406C484.372 96.0208 485.935 102.271 488.148 108.391L488.539 109.562L488.734 105.07ZM594.594 62.4922C595.375 58.7161 597.914 56.8281 602.211 56.8281H604.359C609.828 57.4792 613.734 59.9531 616.078 64.25C616.729 65.6823 617.12 67.3099 617.25 69.1328C617.38 70.8255 617.055 72.7135 616.273 74.7969C614.06 77.1406 611.846 82.8047 609.633 91.7891C607.549 100.904 605.792 110.799 604.359 121.477C603.708 126.164 603.122 130.786 602.602 135.344C602.211 139.901 601.885 144.328 601.625 148.625C601.234 156.307 601.234 162.883 601.625 168.352C602.016 173.69 602.992 176.62 604.555 177.141C607.419 178.052 611.586 174.406 617.055 166.203C622.393 158 627.862 148.56 633.461 137.883C637.107 130.721 640.622 123.625 644.008 116.594C647.263 109.562 649.997 103.573 652.211 98.625C653.513 98.1042 654.88 97.8438 656.312 97.8438C657.745 97.8438 659.047 97.974 660.219 98.2344C657.875 103.573 654.88 110.409 651.234 118.742C647.719 127.076 643.747 135.474 639.32 143.938C635.023 152.271 630.466 160.083 625.648 167.375C620.831 174.667 615.948 180.201 611 183.977C608.396 186.06 605.792 187.557 603.188 188.469C601.885 188.859 600.583 189.055 599.281 189.055C597.979 189.055 596.742 188.859 595.57 188.469C591.143 187.036 587.562 184.628 584.828 181.242C582.094 177.987 580.01 174.276 578.578 170.109C575.974 162.167 574.932 153.768 575.453 144.914C575.974 135.93 576.625 129.354 577.406 125.188C577.016 125.318 575.844 127.271 573.891 131.047C571.938 134.693 569.333 138.534 566.078 142.57C564.255 144.784 562.302 146.802 560.219 148.625C558.005 150.578 555.727 152.141 553.383 153.312C550.388 154.745 547.198 155.396 543.812 155.266C540.427 155.266 536.911 153.964 533.266 151.359C530.661 149.536 528.578 147.193 527.016 144.328C525.583 141.464 524.607 138.273 524.086 134.758C523.695 132.674 523.5 130.461 523.5 128.117C523.5 123.43 524.151 118.352 525.453 112.883C527.406 104.94 530.336 97.3229 534.242 90.0312C538.148 82.6094 542.836 76.2292 548.305 70.8906C553.773 65.4219 559.438 62.2318 565.297 61.3203C566.729 61.0599 568.487 60.9297 570.57 60.9297C572.654 60.9297 574.802 61.0599 577.016 61.3203C581.052 61.7109 584.958 62.6224 588.734 64.0547C590.688 64.8359 592.25 65.7474 593.422 66.7891C593.943 64.9661 594.333 63.5339 594.594 62.4922ZM585.609 72.8438C583.266 72.8438 580.922 73.4297 578.578 74.6016C574.802 76.4245 571.286 79.4193 568.031 83.5859C564.776 87.8828 561.977 92.5052 559.633 97.4531C556.117 104.875 553.969 112.232 553.188 119.523C552.276 126.685 553.578 131.177 557.094 133C559.438 134.172 562.367 132.284 565.883 127.336C569.398 122.388 572.914 116.268 576.43 108.977C580.857 99.9922 584.828 90.7474 588.344 81.2422C589.385 78.5078 590.232 76.099 590.883 74.0156C589.19 73.2344 587.432 72.8438 585.609 72.8438ZM684.828 11.5156C684.958 12.6875 684.893 14.4453 684.633 16.7891C684.372 19.263 684.047 22.1927 683.656 25.5781C682.745 31.9583 681.573 39.7057 680.141 48.8203C678.708 58.0651 677.276 67.7005 675.844 77.7266C674.932 84.237 674.086 90.8125 673.305 97.4531C672.523 104.094 671.938 110.409 671.547 116.398C670.635 127.596 670.505 137.167 671.156 145.109C671.677 152.922 673.565 157.349 676.82 158.391C680.596 159.562 684.958 156.698 689.906 149.797C694.854 142.766 699.672 134.693 704.359 125.578C706.833 120.63 709.242 115.747 711.586 110.93C713.799 106.112 715.818 101.75 717.641 97.8438C718.943 97.5833 720.18 97.388 721.352 97.2578C722.523 97.2578 723.76 97.6484 725.062 98.4297C722.068 105.982 717.641 115.552 711.781 127.141C705.922 138.729 699.346 148.82 692.055 157.414C687.237 163.143 682.159 167.57 676.82 170.695C673.305 172.648 669.854 173.625 666.469 173.625C664.516 173.625 662.628 173.365 660.805 172.844C657.81 171.932 655.271 170.24 653.188 167.766C651.104 165.292 649.411 162.232 648.109 158.586C646.026 152.206 644.984 144.328 644.984 134.953V133.586C645.115 123.56 645.831 113.013 647.133 101.945C648.695 88.6641 650.714 75.513 653.188 62.4922C655.661 49.4714 657.419 38.6641 658.461 30.0703C658.982 25.513 659.177 21.8021 659.047 18.9375C659.047 16.0729 658.461 14.4453 657.289 14.0547C658.201 10.2786 661.456 6.82812 667.055 3.70312C670.44 1.75 673.435 0.773438 676.039 0.773438C677.732 0.773438 679.359 1.22917 680.922 2.14062C682.094 2.92188 683.005 4.09375 683.656 5.65625C684.438 7.08854 684.828 9.04167 684.828 11.5156ZM746.742 70.1094C745.701 73.3646 744.008 75.0573 741.664 75.1875C739.32 75.3177 736.911 74.9271 734.438 74.0156C734.698 70.8906 734.503 68.3516 733.852 66.3984C733.201 64.3151 732.224 62.6875 730.922 61.5156C728.578 59.4323 725.844 58.7161 722.719 59.3672C719.464 59.888 717.185 61.4505 715.883 64.0547C714.841 66.0078 714.841 68.026 715.883 70.1094C716.924 72.0625 718.747 74.2109 721.352 76.5547C726.039 80.7214 732.289 85.3438 740.102 90.4219C748.044 95.5 755.206 101.359 761.586 108C765.753 112.427 769.138 117.115 771.742 122.062C773.435 121.021 775.062 119.979 776.625 118.938C786.13 112.688 792.055 106.633 794.398 100.773C795.831 100.253 797.068 99.9922 798.109 99.9922C799.281 99.862 800.714 100.057 802.406 100.578C800.062 106.438 795.57 112.167 788.93 117.766C784.372 121.672 779.62 125.448 774.672 129.094C775.714 132.479 776.234 136.06 776.234 139.836C776.234 145.956 775.193 151.49 773.109 156.438C771.156 161.255 768.552 165.422 765.297 168.938C762.562 171.802 759.568 174.276 756.312 176.359C753.057 178.443 749.737 180.07 746.352 181.242C741.794 182.805 737.432 183.586 733.266 183.586C731.573 183.586 729.815 183.391 727.992 183C722.133 182.089 717.966 179.615 715.492 175.578C713.669 172.714 713.279 169.849 714.32 166.984C715.362 163.99 717.38 160.93 720.375 157.805C723.5 154.549 727.406 151.229 732.094 147.844C734.047 146.411 736.13 144.979 738.344 143.547V143.352C738.604 141.398 738.734 139.51 738.734 137.688C738.734 135.865 738.604 134.107 738.344 132.414C737.693 129.94 736.651 127.401 735.219 124.797C733.656 122.323 731.833 119.784 729.75 117.18C725.974 112.492 721.677 107.74 716.859 102.922C712.172 98.1042 708.331 93.1562 705.336 88.0781C702.862 83.7812 701.365 79.2891 700.844 74.6016C700.714 73.9505 700.648 73.2995 700.648 72.6484C700.648 68.612 701.951 64.4453 704.555 60.1484C705.857 57.9349 707.484 56.1771 709.438 54.875C711.391 53.4427 713.474 52.401 715.688 51.75C718.031 51.099 720.44 50.7734 722.914 50.7734C724.997 50.7734 727.146 51.0339 729.359 51.5547C734.047 52.5964 737.953 54.6797 741.078 57.8047C742.771 59.3672 744.138 61.1901 745.18 63.2734C746.091 65.3568 746.612 67.6354 746.742 70.1094ZM727.211 159.953C724.997 161.776 723.37 163.469 722.328 165.031C721.286 166.464 721.026 167.701 721.547 168.742C723.109 171.477 725.062 171.737 727.406 169.523C729.75 167.31 731.898 163.99 733.852 159.562C734.633 157.74 735.349 155.786 736 153.703C732.484 156.047 729.555 158.13 727.211 159.953Z" fill="black" fill-opacity="0.05"/>
</svg>
