<svg width="39" height="31" viewBox="0 0 39 31" fill="none" xmlns="http://www.w3.org/2000/svg">
<path d="M8.47826 15.4299C10.5507 15.6169 12.2464 16.4118 13.5652 17.8145C14.8841 19.2172 15.5435 20.994 15.5435 23.1448C15.5435 25.4827 14.837 27.3997 13.4239 28.8959C12.0109 30.2986 10.221 31 8.05435 31C5.60507 31 3.62681 30.1116 2.11956 28.3348C0.706522 26.5581 0 23.7994 0 20.0588C0 12.8582 2.40217 6.63951 7.20652 1.40271C8.14855 0.467571 9.23188 0 10.4565 0C11.4928 0 12.3877 0.374058 13.1413 1.12217C13.8949 1.77677 14.2717 2.57164 14.2717 3.50678C14.2717 4.53544 13.8949 5.42383 13.1413 6.17195C10.692 8.69683 9.13768 11.7828 8.47826 15.4299ZM31.9348 15.4299C34.0072 15.6169 35.7029 16.4118 37.0217 17.8145C38.3406 19.2172 39 20.994 39 23.1448C39 25.4827 38.2935 27.3997 36.8804 28.8959C35.4674 30.2986 33.6775 31 31.5109 31C29.0616 31 27.0833 30.1116 25.5761 28.3348C24.163 26.5581 23.4565 23.7994 23.4565 20.0588C23.4565 12.8582 25.8587 6.63951 30.663 1.40271C31.6051 0.467571 32.6884 0 33.913 0C34.9493 0 35.8442 0.374058 36.5978 1.12217C37.3515 1.77677 37.7283 2.57164 37.7283 3.50678C37.7283 4.53544 37.3515 5.42383 36.5978 6.17195C34.1486 8.69683 32.5942 11.7828 31.9348 15.4299Z" fill="white"/>
</svg>
